<svg width="41" height="41" viewBox="0 0 41 41" fill="none" xmlns="http://www.w3.org/2000/svg">
<path d="M1 20.5C1 9.73045 9.73045 1 20.5 1C31.2696 1 40 9.73045 40 20.5C40 31.2696 31.2696 40 20.5 40C9.73045 40 1 31.2696 1 20.5Z" fill="white" stroke="#D7DCE0"/>
<path d="M18.6318 26.9799C18.6291 27.0212 18.625 27.458 18.625 27.5C18.625 28.5356 19.4644 29.375 20.5 29.375C21.5356 29.375 22.375 28.5356 22.375 27.5C22.375 27.458 22.3709 27.0625 22.3682 27.0212M14.77 23.3467L14.875 23.1892V23V18.625C14.875 15.5184 17.3934 13 20.5 13C23.6066 13 26.125 15.5184 26.125 18.625V23V23.1892L26.2299 23.3467L27.9036 25.8571C27.9664 25.9514 28 26.0622 28 26.1756C28 26.4929 27.7429 26.75 27.4256 26.75H13.5744C13.2572 26.75 13 26.4929 13 26.1756C13 26.0622 13.0336 25.9514 13.0965 25.8571L14.77 23.3467Z" stroke="black"/>
<path d="M20.5 11.125V13" stroke="black"/>
</svg>
