<svg width="29" height="38" viewBox="0 0 29 38" fill="none" xmlns="http://www.w3.org/2000/svg">
<g clip-path="url(#clip0_1773_4746)">
<path d="M13.7207 19.193C13.3581 18.035 13.3653 15.7987 13.5757 15.7987C14.1849 15.7987 14.1269 18.4693 13.7207 19.193ZM13.5974 22.609C13.0389 24.0709 12.3426 25.7428 11.5375 27.1468C12.8648 26.6402 14.3662 25.902 16.0997 25.5618C15.1786 24.867 14.2937 23.8683 13.5974 22.609ZM6.77225 31.6412C6.77225 31.6991 7.72966 31.2504 9.30358 28.7318C8.81763 29.1877 7.19293 30.5049 6.77225 31.6412ZM18.515 12.2379H28.3792V35.9763C28.3792 36.9389 27.6031 37.7133 26.6385 37.7133H2.26809C1.30342 37.7133 0.527344 36.9389 0.527344 35.9763V2.39516C0.527344 1.4326 1.30342 0.658203 2.26809 0.658203H16.7743V10.501C16.7743 11.4563 17.5576 12.2379 18.515 12.2379ZM17.9348 24.6716C16.4841 23.7887 15.5195 22.5728 14.8377 20.778C15.1641 19.4391 15.679 17.4054 15.2874 16.1316C14.9465 14.0038 12.2121 14.2137 11.8204 15.6395C11.4577 16.9639 11.7914 18.8311 12.4079 21.2122C11.5665 23.2097 10.3263 25.8875 9.44864 27.4218C9.44139 27.4218 9.44139 27.4291 9.43414 27.4291C7.46855 28.435 4.09586 30.6497 5.4812 32.3504C5.88738 32.8498 6.6417 33.0742 7.04062 33.0742C8.33892 33.0742 9.62997 31.7715 11.4723 28.6015C13.3436 27.9863 15.3962 27.2192 17.2022 26.9224C18.7761 27.7765 20.6184 28.3337 21.8442 28.3337C23.9621 28.3337 24.1071 26.0178 23.273 25.1927C22.2649 24.2085 19.3346 24.4907 17.9348 24.6716ZM27.8715 8.25739L20.7635 1.16482C20.4371 0.839136 19.9946 0.658203 19.5304 0.658203H19.0953V9.92198H28.3792V9.4805C28.3792 9.02455 28.1979 8.58307 27.8715 8.25739ZM22.497 26.7343C22.7943 26.5389 22.3156 25.873 19.3926 26.0829C22.0835 27.2264 22.497 26.7343 22.497 26.7343Z" fill="#DD214F"/>
</g>
<defs>
<clipPath id="clip0_1773_4746">
<rect width="27.8519" height="37.0551" fill="white" transform="translate(0.527344 0.658203)"/>
</clipPath>
</defs>
</svg>
