<svg width="720" height="1024" viewBox="0 0 720 1024" fill="none" xmlns="http://www.w3.org/2000/svg">
<g clip-path="url(#clip0_910_7265)">
<rect width="720" height="1024" fill="#2F64BB"/>
<circle cx="0.5" cy="130.5" r="282.5" fill="#4C7BC7"/>
<circle cx="720.5" cy="1092.5" r="282.5" fill="#4C7BC7"/>
<g filter="url(#filter0_d_910_7265)">
<path d="M213.207 513H205.298L217.349 478.091H226.861L238.895 513H230.986L222.241 486.068H221.969L213.207 513ZM212.713 499.278H231.395V505.04H212.713V499.278ZM243.097 513V478.091H256.869C259.517 478.091 261.773 478.597 263.636 479.608C265.5 480.608 266.92 482 267.898 483.784C268.886 485.557 269.381 487.602 269.381 489.92C269.381 492.239 268.881 494.284 267.881 496.057C266.881 497.83 265.432 499.21 263.534 500.199C261.648 501.187 259.364 501.682 256.682 501.682H247.903V495.767H255.489C256.909 495.767 258.08 495.523 259 495.034C259.932 494.534 260.625 493.847 261.08 492.972C261.545 492.085 261.778 491.068 261.778 489.92C261.778 488.761 261.545 487.75 261.08 486.886C260.625 486.011 259.932 485.335 259 484.858C258.068 484.369 256.886 484.125 255.455 484.125H250.477V513H243.097ZM274.175 513V478.091H287.947C290.595 478.091 292.851 478.597 294.714 479.608C296.578 480.608 297.999 482 298.976 483.784C299.964 485.557 300.459 487.602 300.459 489.92C300.459 492.239 299.959 494.284 298.959 496.057C297.959 497.83 296.51 499.21 294.612 500.199C292.726 501.187 290.442 501.682 287.76 501.682H278.982V495.767H286.567C287.987 495.767 289.158 495.523 290.078 495.034C291.01 494.534 291.703 493.847 292.158 492.972C292.624 492.085 292.857 491.068 292.857 489.92C292.857 488.761 292.624 487.75 292.158 486.886C291.703 486.011 291.01 485.335 290.078 484.858C289.146 484.369 287.964 484.125 286.533 484.125H281.555V513H274.175ZM345.561 478.091V513H339.186L323.999 491.028H323.743V513H316.362V478.091H322.839L337.908 500.045H338.214V478.091H345.561ZM357.676 513H349.767L361.818 478.091H371.33L383.364 513H375.455L366.71 486.068H366.438L357.676 513ZM357.182 499.278H375.864V505.04H357.182V499.278ZM387.565 478.091H396.668L406.281 501.545H406.69L416.304 478.091H425.406V513H418.247V490.278H417.957L408.923 512.83H404.048L395.014 490.193H394.724V513H387.565V478.091ZM431.487 513V478.091H455.01V484.176H438.868V492.494H453.8V498.58H438.868V506.915H455.078V513H431.487Z" fill="white"/>
</g>
</g>
<defs>
<filter id="filter0_d_910_7265" x="201.299" y="478.091" width="257.779" height="52.9092" filterUnits="userSpaceOnUse" color-interpolation-filters="sRGB">
<feFlood flood-opacity="0" result="BackgroundImageFix"/>
<feColorMatrix in="SourceAlpha" type="matrix" values="0 0 0 0 0 0 0 0 0 0 0 0 0 0 0 0 0 0 127 0" result="hardAlpha"/>
<feOffset dy="14"/>
<feGaussianBlur stdDeviation="2"/>
<feComposite in2="hardAlpha" operator="out"/>
<feColorMatrix type="matrix" values="0 0 0 0 0 0 0 0 0 0 0 0 0 0 0 0 0 0 0.25 0"/>
<feBlend mode="normal" in2="BackgroundImageFix" result="effect1_dropShadow_910_7265"/>
<feBlend mode="normal" in="SourceGraphic" in2="effect1_dropShadow_910_7265" result="shape"/>
</filter>
<clipPath id="clip0_910_7265">
<rect width="720" height="1024" fill="white"/>
</clipPath>
</defs>
</svg>
