<svg width="146" height="93" viewBox="0 0 146 93" fill="none" xmlns="http://www.w3.org/2000/svg">
<g clip-path="url(#clip0_179_2739)">
<path d="M115.203 7.07422C116.118 7.07422 116.86 6.31807 116.86 5.38532C116.86 4.45256 116.118 3.69641 115.203 3.69641C114.289 3.69641 113.547 4.45256 113.547 5.38532C113.547 6.31807 114.289 7.07422 115.203 7.07422Z" stroke="#FDFCFF" stroke-width="0.84068" stroke-miterlimit="10"/>
<path d="M2.13805 79.5319C3.05297 79.5319 3.79466 78.7757 3.79466 77.843C3.79466 76.9102 3.05297 76.1541 2.13805 76.1541C1.22313 76.1541 0.481445 76.9102 0.481445 77.843C0.481445 78.7757 1.22313 79.5319 2.13805 79.5319Z" stroke="#FDFCFF" stroke-width="0.84068" stroke-miterlimit="10"/>
<path d="M145.791 46.1969C145.791 46.4219 145.725 46.6419 145.603 46.8291C145.48 47.0162 145.306 47.1621 145.102 47.2482C144.898 47.3343 144.674 47.3568 144.457 47.3129C144.24 47.269 144.042 47.1607 143.886 47.0015C143.729 46.8424 143.623 46.6396 143.58 46.4189C143.537 46.1981 143.559 45.9693 143.644 45.7614C143.728 45.5535 143.871 45.3758 144.055 45.2507C144.238 45.1257 144.454 45.059 144.675 45.059C144.971 45.059 145.255 45.1788 145.464 45.3923C145.673 45.6057 145.791 45.8951 145.791 46.1969V46.1969Z" stroke="#FDFCFF" stroke-width="0.84068" stroke-miterlimit="10"/>
<path d="M6.7136 14.1605C6.7136 14.1605 6.15435 15.1188 6.92039 15.6889C7.68642 16.2591 8.35611 15.193 9.20909 15.8518C10.0621 16.5106 9.35243 17.3131 9.35243 17.3131" stroke="#FDFCFF" stroke-width="0.84068" stroke-miterlimit="10"/>
<path d="M138.434 66.5189C138.434 66.5189 138.006 67.8365 139.092 68.318C140.177 68.7996 140.704 67.3215 141.911 67.8868C143.119 68.4522 142.475 69.6236 142.475 69.6236" stroke="#FDFCFF" stroke-width="0.84068" stroke-miterlimit="10"/>
<path d="M9.43963 44.2253C9.44009 44.5155 9.35609 44.7993 9.19825 45.0407C9.04041 45.2822 8.81584 45.4705 8.55297 45.5818C8.2901 45.693 8.00075 45.7223 7.72158 45.6658C7.4424 45.6093 7.18594 45.4696 6.98468 45.2644C6.78342 45.0592 6.64641 44.7978 6.591 44.5131C6.53558 44.2285 6.56426 43.9335 6.67339 43.6655C6.78253 43.3976 6.96722 43.1686 7.20407 43.0077C7.44092 42.8468 7.71928 42.7611 8.0039 42.7616C8.38449 42.7622 8.74931 42.9166 9.01843 43.191C9.28754 43.4654 9.43901 43.8373 9.43963 44.2253Z" fill="#AB8BDB"/>
<path d="M131.944 21.3449C131.943 21.6343 131.859 21.9171 131.701 22.1574C131.543 22.3978 131.318 22.5851 131.056 22.6955C130.793 22.8059 130.505 22.8346 130.226 22.7778C129.948 22.7211 129.693 22.5815 129.492 22.3767C129.291 22.1719 129.155 21.911 129.1 21.6272C129.044 21.3433 129.073 21.0491 129.182 20.7818C129.291 20.5145 129.475 20.286 129.711 20.1253C129.947 19.9646 130.224 19.8788 130.508 19.8788C130.697 19.8788 130.884 19.9167 131.058 19.9904C131.232 20.0641 131.391 20.1722 131.524 20.3083C131.657 20.4445 131.763 20.6062 131.835 20.784C131.907 20.9619 131.944 21.1525 131.944 21.3449Z" fill="#DD4C88"/>
<path d="M129.37 79.0121C129.37 79.2334 129.306 79.4498 129.185 79.6339C129.065 79.8179 128.893 79.9613 128.693 80.0459C128.492 80.1305 128.271 80.1525 128.058 80.1091C127.845 80.0658 127.65 79.959 127.496 79.8023C127.343 79.6456 127.239 79.446 127.197 79.2289C127.155 79.0117 127.177 78.7867 127.26 78.5823C127.343 78.3779 127.484 78.2033 127.665 78.0807C127.846 77.958 128.058 77.8928 128.275 77.8933C128.566 77.8939 128.845 78.0121 129.05 78.2218C129.255 78.4316 129.37 78.7158 129.37 79.0121Z" fill="#AB8BDB"/>
<path d="M61.9779 1.1188C61.9784 1.34027 61.9144 1.5569 61.794 1.74124C61.6736 1.92559 61.5022 2.06935 61.3016 2.15432C61.101 2.2393 60.8801 2.26165 60.6671 2.21856C60.454 2.17547 60.2582 2.06887 60.1046 1.91227C59.951 1.75566 59.8464 1.5561 59.8042 1.33886C59.7619 1.12162 59.7838 0.896481 59.8672 0.691959C59.9505 0.487436 60.0916 0.312736 60.2724 0.189989C60.4532 0.067241 60.6657 0.00197023 60.8829 0.00244397C61.1731 0.00307687 61.4513 0.120896 61.6565 0.330116C61.8617 0.539336 61.9773 0.822917 61.9779 1.1188Z" fill="#CFBBEB"/>
<path d="M128.598 35.7305H138.114" stroke="#FDFCFF" stroke-width="0.916247" stroke-linecap="round" stroke-linejoin="round"/>
<path d="M0 33.0762H16.7987" stroke="#FDFCFF" stroke-width="0.916247" stroke-miterlimit="10"/>
<path d="M70.2852 1.11877H80.3869" stroke="#FDFCFF" stroke-width="0.916247" stroke-linecap="round" stroke-linejoin="round"/>
<path d="M50.3236 19.5123C50.3236 19.5123 49.661 24.4161 43.9791 27.4777C37.919 30.7429 42.2262 40.5625 52.7697 40.8931C64.2203 41.2548 70.4731 30.7381 61.9057 17.5623L50.3236 19.5123Z" fill="#3A1616"/>
<path d="M53.8691 34.789L53.9302 26.3253H59.0011L59.1092 34.8872L53.8691 34.789Z" fill="#D6906E"/>
<path d="M53.289 28.8047C53.0187 28.0549 55.0443 32.276 57.1497 32.0005C58.952 31.7609 59.2645 28.455 59.2645 28.455C59.2645 28.455 58.428 29.715 56.5246 29.7174C54.3934 29.7198 53.289 28.8047 53.289 28.8047Z" fill="#3A1616"/>
<path d="M50.2648 21.6563C50.911 25.4294 53.061 28.6036 56.5129 28.6036C59.9647 28.6036 62.3357 25.4629 62.761 21.6563C63.2427 17.3442 59.9624 14.7809 56.5129 14.7809C53.0634 14.7809 49.6021 17.7802 50.2648 21.6563Z" fill="#3A1616"/>
<path d="M51.1125 23.6231C50.9617 23.407 50.7414 23.2516 50.4899 23.1837C50.2383 23.1159 49.9715 23.14 49.7355 23.2518C48.8074 23.6112 49.2256 25.9085 50.6191 26.2008C50.7753 26.2292 50.9357 26.2224 51.0891 26.1811C51.2425 26.1397 51.3853 26.0647 51.5073 25.9612C51.5073 25.9612 51.1666 24.2676 51.1125 23.6231Z" fill="#D6906E"/>
<path d="M49.9189 24.0639C49.9189 24.0639 50.6967 23.798 51.2466 24.9647" stroke="#161311" stroke-width="0.481738" stroke-linecap="round" stroke-linejoin="round"/>
<path d="M61.7624 23.6231C61.9129 23.4067 62.1332 23.2509 62.3848 23.1831C62.6365 23.1152 62.9035 23.1395 63.1393 23.2518C64.0675 23.6112 63.6469 25.9086 62.2558 26.2008C62.0992 26.2292 61.9384 26.2225 61.7846 26.1811C61.6308 26.1398 61.4877 26.0647 61.3652 25.9613C61.3652 25.9613 61.713 24.2676 61.7624 23.6231Z" fill="#D6906E"/>
<path d="M62.9608 24.0639C62.9608 24.0639 62.1831 23.798 61.6309 24.9647" stroke="#161311" stroke-width="0.481738" stroke-linecap="round" stroke-linejoin="round"/>
<path d="M51.0259 21.6444C51.0259 23.1153 51.174 25.8846 52.1092 27.7125C52.988 29.4301 54.553 30.2997 56.4587 30.3021C58.3643 30.3045 60.0586 28.9989 60.8105 27.5256C61.9478 25.2977 61.8937 21.6707 61.8937 21.6707C61.8937 21.6707 61.8937 16.4124 56.5174 16.4124C50.8567 16.4124 51.0259 21.6444 51.0259 21.6444Z" fill="#D6906E"/>
<path d="M55.2484 21.3904L52.3018 22.1665C52.3018 22.1665 52.4357 21.3233 53.6411 21.019C54.8466 20.7148 55.2484 21.3904 55.2484 21.3904Z" fill="#1A1A1A"/>
<path d="M57.124 21.3904L60.073 22.1665C60.073 22.1665 59.9367 21.3233 58.7313 21.019C57.5258 20.7148 57.124 21.3904 57.124 21.3904Z" fill="#1A1A1A"/>
<path d="M56.0168 23.8795L55.8828 24.9527H56.6465" stroke="#161311" stroke-width="0.481738" stroke-linecap="round" stroke-linejoin="round"/>
<path d="M58.5315 25.863H54.2432C54.2432 25.863 54.3654 27.4753 56.3791 27.4777C58.2378 27.4825 58.5315 25.863 58.5315 25.863Z" fill="white"/>
<path d="M54.64 23.1152C54.64 23.1152 53.8246 22.6936 53.1338 23.1152" stroke="#161311" stroke-width="0.481738" stroke-linecap="round" stroke-linejoin="round"/>
<path d="M59.3304 23.1152C59.3304 23.1152 58.5151 22.6936 57.8242 23.1152" stroke="#161311" stroke-width="0.481738" stroke-linecap="round" stroke-linejoin="round"/>
<path d="M61.762 23.6231C61.762 23.6231 60.331 20.7316 61.3297 18.1587C61.3297 18.1587 62.326 18.1731 62.2907 22.1881L61.762 23.6231Z" fill="#3A1616"/>
<path d="M51.1126 23.6231C51.1126 23.6231 52.5389 20.5495 51.545 18.1587C51.545 18.1587 50.5487 18.1731 50.5839 22.1881L51.1126 23.6231Z" fill="#3A1616"/>
<path d="M62.8074 20.3938C62.8074 20.3938 55.053 19.9147 52.8066 16.7214C52.8066 16.7214 53.5398 14.7282 56.994 15.284C60.4482 15.8398 62.8074 20.3938 62.8074 20.3938Z" fill="#3A1616"/>
<path d="M55.9836 15.8997C55.9836 15.8997 53.7889 20.5447 50.6543 20.389C50.6543 20.389 52.3767 15.9452 55.9836 15.8997Z" fill="#3A1616"/>
<path d="M51.4977 87.8231C51.4977 87.8231 53.7958 76.1876 55.1493 73.0158C55.1772 72.9532 55.2234 72.9009 55.2815 72.8662C55.3397 72.8314 55.407 72.8158 55.4742 72.8216C55.5414 72.8274 55.6052 72.8542 55.6568 72.8984C55.7085 72.9426 55.7454 73.0021 55.7626 73.0685C56.0892 74.2783 56.5169 77.8406 56.3266 88.3262V92.6119H65.3568L66.7667 82.2964C66.8396 81.5059 69.7369 68.5768 62.4525 58.6086H48.3255C48.3255 58.6086 42.6085 68.6319 41.8213 80.8878C41.645 83.6164 41.5863 87.7824 41.2197 92.6095H50.4944L51.4977 87.8231Z" fill="#2A1E17"/>
<path d="M51.2471 71.1353L55.8879 73.0685" stroke="#150B05" stroke-width="0.939861" stroke-miterlimit="10"/>
<path d="M44.5921 36.2792C44.5921 36.2792 41.6314 36.708 39.4648 44.2685L45.2994 47.6775L48.7418 42.8503L44.5921 36.2792Z" fill="#FF4C4A"/>
<path d="M45.2998 47.6775C45.2998 47.6775 41.425 53.8726 40.5063 54.9865C39.5663 56.1388 38.1142 56.709 36.8617 55.9112C36.3179 55.564 35.9184 55.0248 35.7394 54.3966C35.5605 53.7683 35.6145 53.0949 35.8913 52.5047L39.9094 44.4985L45.2998 47.6775Z" fill="#D6906E"/>
<path d="M35.9428 36.2887L40.5813 51.6781L35.635 53.8725L32.6602 36.5187L35.9428 36.2887Z" fill="#D6906E"/>
<path d="M35.6235 37.0528L36.3496 36.3342C36.8812 35.8132 37.2101 35.1138 37.2754 34.365L37.4611 32.276C37.4611 32.276 37.5809 31.1788 35.4355 31.4543C33.2902 31.7298 33.1633 31.7442 33.1891 32.391C33.1891 32.391 33.5815 33.2917 34.9632 33.4738L35.6235 37.0528Z" fill="#D6906E"/>
<path d="M32.9086 37.374C32.9086 37.374 30.7938 36.1762 30.6928 32.396C30.6875 32.1814 30.7358 31.969 30.8332 31.7787C30.9307 31.5884 31.074 31.4266 31.2497 31.3083C31.7995 30.9394 33.3833 30.0123 34.2316 30.6064L35.719 32.5612L35.6227 37.053L32.9086 37.374Z" fill="#D6906E"/>
<path d="M36.0291 31.9024L37.204 25.8104C37.2381 25.6361 37.2035 25.4551 37.1076 25.3067C37.0117 25.1582 36.8623 25.0543 36.6918 25.0174C36.5212 24.9808 36.3433 25.0137 36.1962 25.109C36.0491 25.2044 35.9444 25.3547 35.9046 25.5277L34.8613 30.1344L34.3608 30.2327L32.629 25.5708C32.6003 25.4931 32.5565 25.4221 32.5002 25.3622C32.4439 25.3022 32.3763 25.2544 32.3015 25.2217C32.2266 25.1891 32.1461 25.1722 32.0646 25.172C31.9832 25.1719 31.9026 25.1886 31.8277 25.221C31.6957 25.2796 31.5884 25.3839 31.5247 25.5155C31.4611 25.647 31.4452 25.7973 31.4799 25.9397L33.1812 32.3911L36.0291 31.9024Z" fill="#D6906E"/>
<path d="M36.1236 31.4183C36.1236 31.4183 33.2122 31.1356 33.1887 32.4005C33.1887 32.4005 33.1253 33.3588 34.9628 33.4834C34.6226 33.5968 34.3252 33.8152 34.1118 34.1082C33.8985 34.4013 33.7795 34.7547 33.7715 35.1196" stroke="#BF704F" stroke-width="0.472292" stroke-miterlimit="10"/>
<path d="M38.9785 46.3599L40.2098 50.4468" stroke="#BF704F" stroke-width="0.472292" stroke-miterlimit="10"/>
<path d="M64.4785 45.1094C64.4785 45.1094 69.0865 61.6391 70.8512 75.4786L73.8213 74.9036C73.8213 74.9036 73.3678 54.6152 70.3718 42.0646L64.4785 45.1094Z" fill="#D6906E"/>
<path d="M73.7982 74.2113C73.7982 74.2113 78.2628 80.9358 72.9029 83.9591C72.7313 84.0558 72.5322 84.0894 72.3392 84.0541C72.1462 84.0187 71.971 83.9166 71.8432 83.765L71.8079 83.7219C71.6709 83.5544 71.6006 83.3404 71.6111 83.1226C71.6215 82.9047 71.7119 82.6988 71.8643 82.5456C72.6256 81.7575 73.6502 80.1261 72.0171 77.994C72.0171 77.994 71.1617 78.2168 71.3121 79.9512C71.3215 80.0562 71.3081 80.1619 71.2729 80.261C71.2378 80.3601 71.1816 80.4501 71.1085 80.5246C71.0355 80.5992 70.9472 80.6564 70.85 80.6922C70.7528 80.7281 70.649 80.7417 70.5461 80.7322C70.4009 80.7176 70.2637 80.6575 70.1534 80.5601C70.0431 80.4627 69.9652 80.3328 69.9304 80.1884C69.6485 79.0457 69.1832 76.2092 70.9784 74.6785L73.7982 74.2113Z" fill="#D6906E"/>
<path d="M67.3169 37.6566C67.3169 37.6566 71.5465 39.0748 72.3008 45.8879L65.4136 48.5519L63.8604 44.2398L67.3169 37.6566Z" fill="#DD4C88"/>
<path d="M63.2468 36.0803L67.3848 37.6733L62.462 56.6562H48.3233L44.5918 36.2791L49.4935 35.1196L63.2468 36.0803Z" fill="#FF4C4A"/>
<path d="M62.4596 56.6562H48.3232V58.6087H62.4596V56.6562Z" fill="#1A1A1A"/>
<path d="M46.3966 46.137L45.2969 41.0631" stroke="#C12D71" stroke-width="0.939861" stroke-miterlimit="10"/>
<path d="M64.9199 47.1792L66.405 41.5255" stroke="#C12D71" stroke-width="0.939861" stroke-miterlimit="10"/>
<path d="M57.8077 33.8667L63.2475 36.0802C63.2475 36.0802 62.6154 38.2626 56.231 38.2626C50.6667 38.2626 49.4941 35.1196 49.4941 35.1196L54.7788 33.8667H57.8077Z" fill="#D6906E"/>
<path d="M93.4581 61.8882L99.3749 92.7436H87.9055L83.5067 72.3522L82.4939 72.2899L82.4798 92.7436H71.041L71.6261 61.8882H93.4581Z" fill="#FF4C4A"/>
<path d="M80.5586 72.1462H87.0887" stroke="#2A1E17" stroke-width="0.939861" stroke-miterlimit="10"/>
<path d="M98.7314 40.2294L109.524 37.417C110.558 37.1215 111.437 36.4241 111.972 35.4748C112.506 34.5255 112.654 33.4 112.384 32.3407C112.247 31.8016 112.005 31.2959 111.674 30.8534C111.342 30.4108 110.927 30.0402 110.453 29.7635C109.979 29.4867 109.456 29.3094 108.914 29.2418C108.372 29.1742 107.822 29.2179 107.296 29.3701L96.4873 32.4988L98.7314 40.2294Z" fill="#E8ABA2"/>
<path d="M99.9182 30.4961L89.377 31.9095L92.3918 42.879L102.461 40.7421L99.9182 30.4961Z" fill="#2942A5"/>
<path d="M104.954 16.8339C105.224 15.1091 104.566 12.9051 104.566 12.9051L104.801 9.03623C104.825 8.85881 104.783 8.67868 104.683 8.53112C104.584 8.38356 104.434 8.27921 104.263 8.23849C104.173 8.2152 104.079 8.21031 103.987 8.22411C103.895 8.2379 103.807 8.27011 103.727 8.31887C103.647 8.36763 103.578 8.43199 103.523 8.50823C103.467 8.58448 103.427 8.67111 103.405 8.76313L103.095 11.2641H102.759L102.303 7.24671C102.295 7.1325 102.263 7.02135 102.21 6.92034C102.157 6.81932 102.084 6.73063 101.995 6.6599C101.907 6.58917 101.805 6.53794 101.696 6.50946C101.588 6.48099 101.474 6.47589 101.363 6.49449C101.173 6.52937 101.001 6.63267 100.879 6.78563C100.757 6.93859 100.693 7.13108 100.698 7.32816L100.987 11.6594L100.642 11.7289L99.4341 7.39523C99.4028 7.27629 99.3483 7.16501 99.2738 7.06805C99.1994 6.97108 99.1065 6.89044 99.0007 6.83094C98.895 6.77144 98.7786 6.73431 98.6584 6.72178C98.5382 6.70925 98.4168 6.72157 98.3015 6.758C98.0858 6.82742 97.9038 6.97727 97.7919 7.17758C97.6799 7.37789 97.6462 7.6139 97.6976 7.83842L98.9453 12.7997L98.5082 12.9219L96.8634 9.4363C96.8182 9.34099 96.754 9.25637 96.6749 9.18786C96.5957 9.11934 96.5034 9.06845 96.4038 9.03845C96.3043 9.00845 96.1996 9 96.0967 9.01365C95.9937 9.02729 95.8947 9.06273 95.806 9.11768C95.6598 9.20796 95.5487 9.34686 95.4914 9.51095C95.434 9.67504 95.4339 9.85428 95.4911 10.0184L97.1524 14.6539L95.7778 14.618C95.6257 14.6185 95.4754 14.6515 95.3366 14.7149C95.1978 14.7783 95.0736 14.8706 94.9719 14.986C94.8703 15.1013 94.7935 15.2371 94.7465 15.3846C94.6996 15.5321 94.6835 15.6879 94.6992 15.8422C94.7224 16.0664 94.8119 16.2781 94.9558 16.4492C95.0998 16.6204 95.2914 16.7429 95.5052 16.8004L97.3145 17.246C98.1579 18.3559 99.28 19.2127 100.562 19.7254C100.562 19.7254 104.747 18.1515 104.954 16.8339Z" fill="#E8ABA2"/>
<path d="M97.1592 14.6635C97.1592 14.6635 99.7839 14.5078 101.342 16.0146" stroke="#D8857D" stroke-width="0.472292" stroke-miterlimit="10"/>
<path d="M112.24 31.8857L104.951 16.8364L100.353 18.808L104.986 35.3665L112.24 31.8857Z" fill="#E8ABA2"/>
<path d="M103.607 30.4363L104.322 32.9876" stroke="#D8857D" stroke-width="0.472292" stroke-miterlimit="10"/>
<path d="M79.9541 31.313L71.3232 33.1337L71.6264 61.8882H93.4583L94.1421 32.3455L85.9296 31.622L79.9541 31.313Z" fill="#2942A5"/>
<path d="M93.9004 42.5676V38.8544" stroke="#29114E" stroke-width="0.939861" stroke-miterlimit="10"/>
<path d="M74.4883 39.8965H79.8341V42.6227C79.8341 43.3457 79.5523 44.0391 79.0509 44.5504C78.5494 45.0617 77.8692 45.3489 77.16 45.3489C76.4512 45.3483 75.7716 45.0608 75.2707 44.5496C74.7697 44.0384 74.4883 43.3453 74.4883 42.6227V39.8965Z" fill="#AB8BDB"/>
<path d="M65.0661 40.4403L58.8415 51.9392C58.3178 52.9064 58.1871 54.0444 58.4776 55.1087C58.768 56.173 59.4563 57.0787 60.3947 57.6312C61.3225 58.1769 62.4218 58.3345 63.4613 58.0709C64.5007 57.8073 65.3995 57.143 65.9684 56.2178L72.4304 45.7059L65.0661 40.4403Z" fill="#E8ABA2"/>
<path d="M63.1367 42.0405L72.066 47.881L73.4993 40.905C75.0102 38.416 76.9324 35.4143 74.5144 33.8356C73.9327 33.4553 73.2831 33.1958 72.6029 33.0719C71.9226 32.948 71.2251 32.9621 70.5502 33.1134C69.8753 33.2647 69.2363 33.5503 68.6698 33.9537C68.1033 34.3572 67.6205 34.8706 67.2489 35.4646L63.1367 42.0405Z" fill="#2942A5"/>
<path d="M71.4785 47.4978V39.6809" stroke="#29114E" stroke-width="0.939861" stroke-miterlimit="10"/>
<path d="M61.9032 58.151L78.2437 57.6935L79.3692 52.3106L60.8975 49.9293L61.9032 58.151Z" fill="#E8ABA2"/>
<path d="M69.1754 50.9906L64.9199 50.4468" stroke="#D8857D" stroke-width="0.472292" stroke-miterlimit="10"/>
<path d="M78.2832 52.531C78.2832 52.531 80.3745 49.6562 82.8348 52.519L81.8572 54.5002L78.2832 52.531Z" fill="#E8ABA2"/>
<path d="M80.7464 49.4741L80.0908 53.5083L85.0747 54.0737L85.8666 50.2C85.8884 50.1011 85.8894 49.9987 85.8696 49.8994C85.8498 49.8001 85.8096 49.7062 85.7517 49.6238C85.6938 49.5415 85.6194 49.4726 85.5335 49.4216C85.4477 49.3706 85.3522 49.3387 85.2533 49.328L81.5265 48.8704C81.3451 48.8484 81.1624 48.899 81.0169 49.0116C80.8713 49.1242 80.7744 49.29 80.7464 49.4741Z" fill="#1A1A1A"/>
<path d="M79.336 52.186L85.2363 52.337C85.565 52.3451 85.8776 52.4839 86.1072 52.7239C86.3369 52.9638 86.4654 53.2858 86.4653 53.621C86.466 53.8619 86.4003 54.0981 86.2757 54.3027C86.151 54.5073 85.9724 54.672 85.7603 54.7781L85.4431 54.9338C85.4431 54.9338 86.047 59.4855 82.5012 60.0293C78.9553 60.5731 76.9697 57.7175 76.9697 57.7175L79.336 52.186Z" fill="#E8ABA2"/>
<path d="M86.2561 31.634L86.1739 22.5522H79.7072L79.5615 31.3968L86.2561 31.634Z" fill="#E8ABA2"/>
<path d="M79.1741 25.2043C78.8381 24.4185 81.4205 29.5475 84.057 29.2577C86.3175 29.0181 86.4068 24.8378 86.4068 24.8378C86.4068 24.8378 85.6055 26.1554 83.2181 26.1601C80.5605 26.1625 79.1741 25.2043 79.1741 25.2043Z" fill="#3A1616"/>
<path d="M89.6185 17.543C88.9253 21.5916 86.6178 24.9981 82.9168 24.9981C79.2159 24.9981 76.6687 21.6323 76.2129 17.543C75.6959 12.9051 79.2135 9.82434 82.9098 9.82434C86.606 9.82434 90.3305 13.3866 89.6185 17.543Z" fill="#2F1118"/>
<path d="M88.7093 19.6536C88.8711 19.4215 89.1076 19.2546 89.3777 19.1819C89.6477 19.1092 89.9342 19.1354 90.1873 19.2559C91.1836 19.6416 90.7325 22.1067 89.2474 22.4205C89.0793 22.4502 88.9068 22.4427 88.7418 22.3985C88.5768 22.3543 88.4231 22.2743 88.291 22.1642C88.291 22.1642 88.6505 20.3459 88.7093 19.6536Z" fill="#E8ABA2"/>
<path d="M89.9898 20.1255C89.9898 20.1255 89.1556 19.8428 88.5635 21.0837" stroke="#161311" stroke-width="0.519521" stroke-linecap="round" stroke-linejoin="round"/>
<path d="M77.2704 19.6537C77.1083 19.4219 76.8717 19.2553 76.6018 19.1827C76.3319 19.1101 76.0455 19.136 75.7923 19.256C74.796 19.6417 75.2472 22.1068 76.7323 22.4206C76.9 22.4509 77.0722 22.4437 77.2369 22.3995C77.4017 22.3552 77.555 22.275 77.6863 22.1643C77.6863 22.1643 77.3362 20.346 77.2704 19.6537Z" fill="#E8ABA2"/>
<path d="M75.999 20.1256C75.999 20.1256 76.8332 19.8429 77.423 21.0838" stroke="#161311" stroke-width="0.519521" stroke-linecap="round" stroke-linejoin="round"/>
<path d="M88.8037 17.5311C88.8037 19.1098 88.6439 22.4134 87.6406 24.3754C86.7006 26.2176 85.138 27.207 83.0937 27.2669C81.4629 27.3124 79.1131 25.7553 78.3048 24.1742C77.0853 21.7785 77.144 17.5599 77.144 17.5599C77.144 17.5599 77.144 11.9182 82.9104 11.9182C88.9846 11.9182 88.8037 17.5311 88.8037 17.5311Z" fill="#E8ABA2"/>
<path d="M80.9574 19.4428C80.9578 19.533 80.932 19.6213 80.8831 19.6965C80.8342 19.7718 80.7645 19.8305 80.6829 19.8652C80.6012 19.9 80.5112 19.9092 80.4244 19.8917C80.3376 19.8742 80.2578 19.8308 80.1952 19.767C80.1326 19.7032 80.0901 19.6219 80.0729 19.5334C80.0558 19.4449 80.0648 19.3531 80.0989 19.2699C80.133 19.1866 80.1906 19.1155 80.2643 19.0657C80.3381 19.0159 80.4248 18.9895 80.5133 18.99C80.6309 18.9906 80.7435 19.0385 80.8266 19.1233C80.9098 19.2081 80.9568 19.3229 80.9574 19.4428Z" fill="#1A1A1A"/>
<path d="M85.5629 19.4428C85.5633 19.533 85.5375 19.6213 85.4886 19.6965C85.4397 19.7718 85.37 19.8305 85.2883 19.8652C85.2067 19.9 85.1167 19.9092 85.0299 19.8917C84.943 19.8742 84.8633 19.8308 84.8007 19.767C84.7381 19.7032 84.6955 19.6219 84.6784 19.5334C84.6612 19.4449 84.6703 19.3531 84.7044 19.2699C84.7384 19.1866 84.796 19.1155 84.8698 19.0657C84.9436 19.0159 85.0302 18.9895 85.1187 18.99C85.2363 18.9906 85.3489 19.0385 85.4321 19.1233C85.5152 19.2081 85.5622 19.3229 85.5629 19.4428Z" fill="#1A1A1A"/>
<path d="M81.7185 17.5933L78.5557 18.427C78.5557 18.427 78.699 17.5215 79.9937 17.1933C81.2885 16.8651 81.7185 17.5933 81.7185 17.5933Z" fill="#1A1A1A"/>
<path d="M83.7275 17.5933L86.8904 18.427C86.8904 18.427 86.747 17.5215 85.4546 17.1933C84.1622 16.8651 83.7275 17.5933 83.7275 17.5933Z" fill="#1A1A1A"/>
<path d="M82.3984 20.5974V21.7497H83.2185" stroke="#161311" stroke-width="0.519521" stroke-linecap="round" stroke-linejoin="round"/>
<path d="M85.3941 22.7175H80.5605C80.5605 22.7175 80.6945 24.016 82.854 24.0207C84.8395 24.0231 85.3941 22.7175 85.3941 22.7175Z" fill="white"/>
<path d="M77.2706 19.6536C77.2706 19.6536 79.4277 16.2758 77.7405 13.7915C77.7405 13.7915 76.6714 13.8083 76.709 18.1036L77.2706 19.6536Z" fill="#2F1118"/>
<path d="M88.7095 19.6536C88.7095 19.6536 86.5501 16.2758 88.2396 13.7915C88.2396 13.7915 89.3064 13.8083 89.2688 18.1036L88.7095 19.6536Z" fill="#2F1118"/>
<path d="M77.167 13.6287C77.167 13.6287 79.9539 16.8436 85.6991 16.2135C90.8287 15.6506 91.2728 11.9853 90.0509 10.5335C88.305 8.46373 84.4561 9.23272 82.3976 11.5469L77.167 13.6287Z" fill="#2F1118"/>
<path d="M79.5615 31.397L82.9734 35.8672L86.2561 31.6341L79.5615 31.397Z" fill="#E8ABA2"/>
<path d="M79.5622 30.7668L77.5508 31.8209L79.8254 36.4684L82.0976 34.7196L79.5622 30.7668Z" fill="#AB8BDB"/>
<path d="M86.2727 30.7668L88.538 31.8521L86.1435 36.4684L83.8877 34.6693L86.2727 30.7668Z" fill="#AB8BDB"/>
<path d="M6.14258 92.7604H136.218" stroke="#FDFCFF" stroke-width="0.939861" stroke-miterlimit="10"/>
</g>
<defs>
<clipPath id="clip0_179_2739">
<rect width="146" height="93" fill="white"/>
</clipPath>
</defs>
</svg>
