<svg width="25" height="25" viewBox="0 0 25 25" fill="none" xmlns="http://www.w3.org/2000/svg">
<circle cx="12.5" cy="12.5" r="12.5" fill="#2C62B9"/>
<path d="M7.354 18.13C7.042 18.13 6.74733 18.091 6.47 18.013C6.19267 17.935 5.937 17.8267 5.703 17.688C5.469 17.5407 5.261 17.3673 5.079 17.168C4.897 16.96 4.73667 16.7303 4.598 16.479L5.625 15.426C5.781 15.6513 5.92833 15.8377 6.067 15.985C6.20567 16.1323 6.33567 16.245 6.457 16.323C6.587 16.401 6.717 16.4573 6.847 16.492C6.98567 16.5267 7.12433 16.544 7.263 16.544C7.54033 16.544 7.783 16.4833 7.991 16.362C8.199 16.232 8.35933 16.0543 8.472 15.829C8.59333 15.6037 8.654 15.348 8.654 15.062V10.421H6.977V8.9H11.722V10.421H10.318V15.231C10.318 15.6557 10.2443 16.0457 10.097 16.401C9.94967 16.7477 9.74167 17.051 9.473 17.311C9.213 17.571 8.901 17.7747 8.537 17.922C8.18167 18.0607 7.78733 18.13 7.354 18.13ZM15.4996 18.13C14.893 18.13 14.347 17.9783 13.8616 17.675C13.385 17.363 13.0036 16.9427 12.7176 16.414C12.4403 15.8767 12.3016 15.2613 12.3016 14.568C12.3016 13.8833 12.4403 13.2723 12.7176 12.735C12.995 12.1977 13.372 11.7773 13.8486 11.474C14.334 11.162 14.88 11.006 15.4866 11.006C15.816 11.006 16.1323 11.058 16.4356 11.162C16.7476 11.266 17.025 11.409 17.2676 11.591C17.5103 11.7643 17.701 11.9593 17.8396 12.176C17.987 12.3927 18.0693 12.618 18.0866 12.852L17.6576 12.904V8.38H19.2566V18H17.7096L17.6706 16.388L17.9826 16.414C17.974 16.6307 17.896 16.8387 17.7486 17.038C17.61 17.2373 17.428 17.4193 17.2026 17.584C16.9773 17.7487 16.713 17.883 16.4096 17.987C16.115 18.0823 15.8116 18.13 15.4996 18.13ZM15.8116 16.778C16.1843 16.778 16.5136 16.6827 16.7996 16.492C17.0856 16.3013 17.3066 16.0413 17.4626 15.712C17.6273 15.3827 17.7096 15.0013 17.7096 14.568C17.7096 14.1433 17.6273 13.7663 17.4626 13.437C17.3066 13.099 17.0856 12.839 16.7996 12.657C16.5136 12.4663 16.1843 12.371 15.8116 12.371C15.439 12.371 15.1096 12.4663 14.8236 12.657C14.5376 12.839 14.3123 13.099 14.1476 13.437C13.9916 13.7663 13.9136 14.1433 13.9136 14.568C13.9136 15.0013 13.9916 15.3827 14.1476 15.712C14.3123 16.0413 14.5376 16.3013 14.8236 16.492C15.1096 16.6827 15.439 16.778 15.8116 16.778Z" fill="white"/>
</svg>
