<svg width="375" height="812" viewBox="0 0 375 812" fill="none" xmlns="http://www.w3.org/2000/svg">
<g clip-path="url(#clip0_48_983)">
<rect width="375" height="812" fill="#2C61B8"/>
<rect width="375" height="812" fill="url(#paint0_linear_48_983)" fill-opacity="0.2"/>
<path d="M96.3488 402H90.2621L99.5364 375.135H106.856L116.117 402H110.031L103.301 381.274H103.091L96.3488 402ZM95.9684 391.44H110.346V395.874H95.9684V391.44ZM119.351 402V375.135H129.95C131.988 375.135 133.724 375.524 135.158 376.302C136.592 377.072 137.685 378.143 138.438 379.516C139.198 380.88 139.579 382.454 139.579 384.238C139.579 386.022 139.194 387.597 138.424 388.961C137.655 390.325 136.54 391.388 135.079 392.148C133.628 392.909 131.87 393.29 129.806 393.29H123.05V388.738H128.888C129.981 388.738 130.882 388.55 131.59 388.174C132.307 387.789 132.841 387.26 133.19 386.586C133.549 385.904 133.728 385.122 133.728 384.238C133.728 383.346 133.549 382.568 133.19 381.903C132.841 381.23 132.307 380.71 131.59 380.342C130.873 379.966 129.963 379.778 128.861 379.778H125.031V402H119.351ZM143.268 402V375.135H153.867C155.905 375.135 157.641 375.524 159.075 376.302C160.51 377.072 161.603 378.143 162.355 379.516C163.116 380.88 163.496 382.454 163.496 384.238C163.496 386.022 163.111 387.597 162.342 388.961C161.572 390.325 160.457 391.388 158.997 392.148C157.545 392.909 155.787 393.29 153.723 393.29H146.967V388.738H152.805C153.898 388.738 154.799 388.55 155.507 388.174C156.224 387.789 156.758 387.26 157.108 386.586C157.466 385.904 157.645 385.122 157.645 384.238C157.645 383.346 157.466 382.568 157.108 381.903C156.758 381.23 156.224 380.71 155.507 380.342C154.79 379.966 153.881 379.778 152.779 379.778H148.948V402H143.268ZM198.206 375.135V402H193.3L181.612 385.091H181.415V402H175.735V375.135H180.72L192.316 392.03H192.552V375.135H198.206ZM207.53 402H201.443L210.717 375.135H218.037L227.298 402H221.211L214.482 381.274H214.272L207.53 402ZM207.149 391.44H221.526V395.874H207.149V391.44ZM230.532 375.135H237.537L244.935 393.185H245.25L252.649 375.135H259.653V402H254.144V384.514H253.921L246.968 401.869H243.217L236.264 384.448H236.041V402H230.532V375.135ZM264.333 402V375.135H282.436V379.818H270.013V386.219H281.505V390.902H270.013V397.317H282.488V402H264.333Z" fill="white"/>
<circle cx="469.5" cy="713.5" r="282.5" fill="#4C7BC7"/>
<circle cx="-26.5" cy="-94.5" r="282.5" fill="#4C7BC7"/>
</g>
<defs>
<linearGradient id="paint0_linear_48_983" x1="187.5" y1="0" x2="187.5" y2="812" gradientUnits="userSpaceOnUse">
<stop stop-color="#1A53B3"/>
<stop offset="1" stop-color="#86AFF2"/>
</linearGradient>
<clipPath id="clip0_48_983">
<rect width="375" height="812" fill="white"/>
</clipPath>
</defs>
</svg>
