<svg width="33" height="32" viewBox="0 0 33 32" fill="none" xmlns="http://www.w3.org/2000/svg">
<path d="M17.1875 11V4.25H7.75V27.75H25.25V12.3125H18.5C18.1519 12.3125 17.8181 12.1742 17.5719 11.9281C17.3258 11.6819 17.1875 11.3481 17.1875 11ZM13 12.5625C13.6906 12.5625 14.25 13.1219 14.25 13.8125C14.25 14.5031 13.6906 15.0625 13 15.0625C12.3094 15.0625 11.75 14.5031 11.75 13.8125C11.75 13.1219 12.3094 12.5625 13 12.5625ZM22.25 21.75H10.7531C10.5438 21.75 10.4281 21.5094 10.5562 21.3469L13.675 17.3719C13.6984 17.342 13.7283 17.3178 13.7624 17.3012C13.7965 17.2846 13.8339 17.276 13.8719 17.276C13.9098 17.276 13.9473 17.2846 13.9814 17.3012C14.0155 17.3178 14.0454 17.342 14.0688 17.3719L15.3531 19.0094L17.7844 15.9094C17.8081 15.8794 17.8382 15.8553 17.8726 15.8387C17.907 15.822 17.9446 15.8134 17.9828 15.8134C18.021 15.8134 18.0587 15.822 18.093 15.8387C18.1274 15.8553 18.1576 15.8794 18.1812 15.9094L22.4469 21.3469C22.575 21.5094 22.4594 21.75 22.25 21.75Z" fill="#E3E3E3"/>
<path d="M27.2062 9.01875L20.4813 2.29375C20.2938 2.10625 20.0406 2 19.775 2H6.5C5.94687 2 5.5 2.44687 5.5 3V29C5.5 29.5531 5.94687 30 6.5 30H26.5C27.0531 30 27.5 29.5531 27.5 29V9.72812C27.5 9.4625 27.3937 9.20625 27.2062 9.01875ZM19.3125 4.30625L25.1938 10.1875H19.3125V4.30625ZM25.25 27.75H7.75V4.25H17.1875V11C17.1875 11.3481 17.3258 11.6819 17.5719 11.9281C17.8181 12.1742 18.1519 12.3125 18.5 12.3125H25.25V27.75Z" fill="#848484"/>
<path d="M17.7846 15.9094L15.3533 19.0094L14.069 17.3719C14.0456 17.342 14.0157 17.3178 13.9816 17.3012C13.9475 17.2846 13.91 17.276 13.8721 17.276C13.8341 17.276 13.7967 17.2846 13.7626 17.3012C13.7285 17.3178 13.6986 17.342 13.6752 17.3719L10.5565 21.3469C10.5276 21.3837 10.5097 21.4279 10.5048 21.4745C10.4999 21.521 10.5082 21.568 10.5287 21.6101C10.5493 21.6521 10.5812 21.6875 10.6209 21.7123C10.6606 21.737 10.7065 21.7501 10.7533 21.75H22.2502C22.4596 21.75 22.5752 21.5094 22.4471 21.3469L18.1815 15.9094C18.1578 15.8794 18.1276 15.8553 18.0932 15.8387C18.0589 15.822 18.0212 15.8134 17.983 15.8134C17.9448 15.8134 17.9072 15.822 17.8728 15.8387C17.8384 15.8553 17.8083 15.8794 17.7846 15.9094ZM11.7502 13.8125C11.7502 14.144 11.8819 14.462 12.1163 14.6964C12.3507 14.9308 12.6687 15.0625 13.0002 15.0625C13.3317 15.0625 13.6497 14.9308 13.8841 14.6964C14.1185 14.462 14.2502 14.144 14.2502 13.8125C14.2502 13.481 14.1185 13.163 13.8841 12.9286C13.6497 12.6942 13.3317 12.5625 13.0002 12.5625C12.6687 12.5625 12.3507 12.6942 12.1163 12.9286C11.8819 13.163 11.7502 13.481 11.7502 13.8125Z" fill="#848484"/>
</svg>
