<svg width="52" height="52" viewBox="0 0 52 52" fill="none" xmlns="http://www.w3.org/2000/svg">
<circle cx="26" cy="26" r="26" fill="#EDEDED"/>
<path opacity="0.4" d="M26.2712 27.0293V28.0368C26.2712 28.416 26.0762 28.7735 25.7403 28.9685L24.917 29.4668" stroke="#464646" stroke-width="1.95" stroke-miterlimit="10" stroke-linecap="round" stroke-linejoin="round"/>
<path d="M21.6666 36.8333H30.3332C34.6882 36.8333 35.4682 35.0892 35.6957 32.9658L36.5082 24.2992C36.8007 21.6558 36.0424 19.5 31.4166 19.5H20.5832C15.9574 19.5 15.1991 21.6558 15.4916 24.2992L16.3041 32.9658C16.5316 35.0892 17.3116 36.8333 21.6666 36.8333Z" stroke="#464646" stroke-width="1.95" stroke-miterlimit="10" stroke-linecap="round" stroke-linejoin="round"/>
<path opacity="0.4" d="M21.667 19.5001V18.6334C21.667 16.7159 21.667 15.1667 25.1337 15.1667H26.867C30.3337 15.1667 30.3337 16.7159 30.3337 18.6334V19.5001" stroke="#464646" stroke-width="1.95" stroke-miterlimit="10" stroke-linecap="round" stroke-linejoin="round"/>
<g opacity="0.4">
<path d="M26.0003 32.717C28.3936 32.717 30.3337 30.7769 30.3337 28.3836C30.3337 25.9904 28.3936 24.0503 26.0003 24.0503C23.6071 24.0503 21.667 25.9904 21.667 28.3836C21.667 30.7769 23.6071 32.717 26.0003 32.717Z" stroke="#464646" stroke-width="1.95" stroke-miterlimit="10" stroke-linecap="round" stroke-linejoin="round"/>
<path d="M36.4542 24.9167C34.5801 26.2817 32.5001 27.2351 30.3442 27.7767" stroke="#464646" stroke-width="1.95" stroke-miterlimit="10" stroke-linecap="round" stroke-linejoin="round"/>
<path d="M15.8374 25.2087C17.6466 26.4437 19.6182 27.3212 21.6657 27.8196" stroke="#464646" stroke-width="1.95" stroke-miterlimit="10" stroke-linecap="round" stroke-linejoin="round"/>
</g>
</svg>
