<svg width="43" height="24" viewBox="0 0 43 24" fill="none" xmlns="http://www.w3.org/2000/svg">
<g clip-path="url(#clip0_73_2204)">
<path fill-rule="evenodd" clip-rule="evenodd" d="M27.539 3.10701L27.654 2.83101C27.706 2.70501 27.731 2.57801 27.772 2.37101L27.804 2.20401C27.9292 1.58127 28.2662 1.0211 28.7577 0.618655C29.2491 0.216208 29.8648 -0.00369263 30.5 -0.00369263C31.1352 -0.00369263 31.7508 0.216208 32.2423 0.618655C32.7337 1.0211 33.0707 1.58127 33.196 2.20401L33.228 2.37001C33.269 2.57801 33.294 2.70501 33.346 2.83001L33.461 3.10701C34.8086 3.68638 35.9568 4.64811 36.7636 5.87324C37.5703 7.09837 38.0002 8.53312 38 10V11.25C38 12.93 38.99 14.452 40.524 15.134L42.5 16.013V16.73C42.5 17.194 42.5 17.588 42.474 17.91C42.446 18.249 42.386 18.575 42.227 18.885C41.9874 19.3551 41.6051 19.7374 41.135 19.977C40.825 20.136 40.499 20.196 40.16 20.224C39.7671 20.2475 39.3735 20.2562 38.98 20.25H35.5C35.119 20.25 34.665 20.6 34.393 21.25C33.756 22.768 32.289 24 30.5 24C28.71 24 27.244 22.768 26.607 21.25C26.335 20.6 25.881 20.25 25.5 20.25H22.02C21.556 20.25 21.162 20.25 20.84 20.224C20.501 20.196 20.176 20.136 19.865 19.977C19.3945 19.7375 19.0119 19.3553 18.772 18.885C18.614 18.575 18.554 18.249 18.526 17.91C18.5025 17.5171 18.4938 17.1235 18.5 16.73V16.013L20.476 15.134C21.2271 14.8002 21.8654 14.2557 22.3133 13.5665C22.7613 12.8773 22.9998 12.073 23 11.251V10C23 6.91001 24.87 4.25601 27.539 3.10701ZM29.275 2.50101C29.3324 2.21844 29.4857 1.96439 29.7089 1.78192C29.9322 1.59944 30.2116 1.49976 30.5 1.49976C30.7883 1.49976 31.0678 1.59944 31.291 1.78192C31.5143 1.96439 31.6676 2.21844 31.725 2.50101C31.732 2.53101 31.738 2.56601 31.745 2.60301C30.9207 2.4652 30.0793 2.4652 29.255 2.60301C29.262 2.56601 29.268 2.53101 29.275 2.50101ZM30.5 4.00001C28.9087 4.00001 27.3826 4.63215 26.2573 5.75737C25.1321 6.88259 24.5 8.40871 24.5 10V11.25C24.5001 12.3624 24.1775 13.4509 23.5714 14.3837C22.9652 15.3164 22.1015 16.0533 21.085 16.505L20 16.987C20.001 17.335 20.005 17.587 20.021 17.788C20.041 18.034 20.076 18.14 20.109 18.204C20.2049 18.3922 20.3578 18.5451 20.546 18.641C20.61 18.674 20.716 18.709 20.962 18.729C21.216 18.749 21.548 18.75 22.05 18.75H30.5H38.95C39.452 18.75 39.784 18.75 40.038 18.729C40.284 18.709 40.39 18.674 40.454 18.641C40.6421 18.5451 40.7951 18.3922 40.891 18.204C40.924 18.14 40.959 18.034 40.979 17.788C40.995 17.586 40.999 17.335 40.999 16.988L39.915 16.505C38.8986 16.0534 38.035 15.3166 37.4289 14.3841C36.8228 13.4515 36.5001 12.3632 36.5 11.251V10C36.5 8.40871 35.8678 6.88259 34.7426 5.75737C33.6174 4.63215 32.0913 4.00001 30.5 4.00001ZM27.99 20.67C27.9297 20.5259 27.8606 20.3856 27.783 20.25H33.217C33.137 20.39 33.067 20.532 33.009 20.67C32.557 21.748 31.568 22.5 30.5 22.5C29.432 22.5 28.443 21.748 27.99 20.67Z" fill="#131313"/>
</g>
<defs>
<clipPath id="clip0_73_2204">
<rect width="24" height="24" fill="white" transform="translate(18.5)"/>
</clipPath>
</defs>
</svg>
