<svg width="17" height="18" viewBox="0 0 17 18" fill="none" xmlns="http://www.w3.org/2000/svg">
<path d="M8.49984 0.666504C3.89984 0.666504 0.166504 4.39984 0.166504 8.99984C0.166504 13.5998 3.89984 17.3332 8.49984 17.3332C13.0998 17.3332 16.8332 13.5998 16.8332 8.99984C16.8332 4.39984 13.0998 0.666504 8.49984 0.666504ZM6.2415 12.5748L3.24984 9.58317C2.92484 9.25817 2.92484 8.73317 3.24984 8.40817C3.57484 8.08317 4.09984 8.08317 4.42484 8.40817L6.83317 10.8082L12.5665 5.07484C12.8915 4.74984 13.4165 4.74984 13.7415 5.07484C14.0665 5.39984 14.0665 5.92484 13.7415 6.24984L7.4165 12.5748C7.09984 12.8998 6.5665 12.8998 6.2415 12.5748Z" fill="white"/>
</svg>
