<svg width="12" height="12" viewBox="0 0 12 12" fill="none" xmlns="http://www.w3.org/2000/svg">
<path d="M6 0C4.4087 0 2.88258 0.632141 1.75736 1.75736C0.632141 2.88258 0 4.4087 0 6C0 7.5913 0.632141 9.11742 1.75736 10.2426C2.88258 11.3679 4.4087 12 6 12C7.5913 12 9.11742 11.3679 10.2426 10.2426C11.3679 9.11742 12 7.5913 12 6C12 4.4087 11.3679 2.88258 10.2426 1.75736C9.11742 0.632141 7.5913 0 6 0V0ZM6 10.5C5.40905 10.5 4.82389 10.3836 4.27792 10.1575C3.73196 9.93131 3.23588 9.59984 2.81802 9.18198C2.40016 8.76412 2.06869 8.26804 1.84254 7.72208C1.6164 7.17611 1.5 6.59095 1.5 6C1.5 5.40905 1.6164 4.82389 1.84254 4.27792C2.06869 3.73196 2.40016 3.23588 2.81802 2.81802C3.23588 2.40016 3.73196 2.06869 4.27792 1.84254C4.82389 1.6164 5.40905 1.5 6 1.5C7.19347 1.5 8.33807 1.97411 9.18198 2.81802C10.0259 3.66193 10.5 4.80653 10.5 6C10.5 7.19347 10.0259 8.33807 9.18198 9.18198C8.33807 10.0259 7.19347 10.5 6 10.5ZM3.75 6C3.75 5.40326 3.98705 4.83097 4.40901 4.40901C4.83097 3.98705 5.40326 3.75 6 3.75C6.59674 3.75 7.16903 3.98705 7.59099 4.40901C8.01295 4.83097 8.25 5.40326 8.25 6C8.25 6.59674 8.01295 7.16903 7.59099 7.59099C7.16903 8.01295 6.59674 8.25 6 8.25C5.40326 8.25 4.83097 8.01295 4.40901 7.59099C3.98705 7.16903 3.75 6.59674 3.75 6Z" fill="#2C62B9"/>
</svg>
