<svg width="29" height="39" viewBox="0 0 29 39" fill="none" xmlns="http://www.w3.org/2000/svg">
<g clip-path="url(#clip0_407_1398)">
<path d="M13.7207 19.5072C13.3581 18.3492 13.3653 16.1129 13.5757 16.1129C14.1849 16.1129 14.1269 18.7835 13.7207 19.5072ZM13.5974 22.9232C13.0389 24.3851 12.3426 26.057 11.5375 27.461C12.8648 26.9544 14.3662 26.2162 16.0997 25.876C15.1786 25.1813 14.2937 24.1825 13.5974 22.9232ZM6.77225 31.9554C6.77225 32.0133 7.72966 31.5646 9.30358 29.046C8.81763 29.5019 7.19293 30.8191 6.77225 31.9554ZM18.515 12.5521H28.3792V36.2905C28.3792 37.2531 27.6031 38.0275 26.6385 38.0275H2.26809C1.30342 38.0275 0.527344 37.2531 0.527344 36.2905V2.70937C0.527344 1.74681 1.30342 0.972412 2.26809 0.972412H16.7743V10.8152C16.7743 11.7705 17.5576 12.5521 18.515 12.5521ZM17.9348 24.9858C16.4841 24.1029 15.5195 22.887 14.8377 21.0922C15.1641 19.7533 15.679 17.7196 15.2874 16.4458C14.9465 14.318 12.2121 14.5279 11.8204 15.9537C11.4577 17.2781 11.7914 19.1453 12.4079 21.5264C11.5665 23.5239 10.3263 26.2017 9.44864 27.736C9.44139 27.736 9.44139 27.7433 9.43414 27.7433C7.46855 28.7493 4.09586 30.9639 5.4812 32.6646C5.88738 33.164 6.6417 33.3884 7.04062 33.3884C8.33892 33.3884 9.62997 32.0857 11.4723 28.9157C13.3436 28.3005 15.3962 27.5334 17.2022 27.2367C18.7761 28.0907 20.6184 28.6479 21.8442 28.6479C23.9621 28.6479 24.1071 26.332 23.273 25.5069C22.2649 24.5227 19.3346 24.8049 17.9348 24.9858ZM27.8715 8.5716L20.7635 1.47902C20.4371 1.15335 19.9946 0.972412 19.5304 0.972412H19.0953V10.2362H28.3792V9.79471C28.3792 9.33876 28.1979 8.89728 27.8715 8.5716ZM22.497 27.0485C22.7943 26.8531 22.3156 26.1872 19.3926 26.3971C22.0835 27.5406 22.497 27.0485 22.497 27.0485Z" fill="#525252"/>
</g>
<defs>
<clipPath id="clip0_407_1398">
<rect width="27.8519" height="37.0551" fill="white" transform="translate(0.527344 0.972412)"/>
</clipPath>
</defs>
</svg>
