<svg width="29" height="38" viewBox="0 0 29 38" fill="none" xmlns="http://www.w3.org/2000/svg">
<g clip-path="url(#clip0_1092_2175)">
<path d="M13.7207 19.1927C13.3581 18.0348 13.3653 15.7984 13.5757 15.7984C14.1849 15.7984 14.1269 18.469 13.7207 19.1927ZM13.5974 22.6088C13.0389 24.0707 12.3426 25.7425 11.5375 27.1466C12.8648 26.6399 14.3662 25.9017 16.0997 25.5616C15.1786 24.8668 14.2937 23.8681 13.5974 22.6088ZM6.77225 31.6409C6.77225 31.6988 7.72966 31.2501 9.30358 28.7315C8.81763 29.1875 7.19293 30.5047 6.77225 31.6409ZM18.515 12.2377H28.3792V35.9761C28.3792 36.9387 27.6031 37.7131 26.6385 37.7131H2.26809C1.30342 37.7131 0.527344 36.9387 0.527344 35.9761V2.39492C0.527344 1.43235 1.30342 0.657959 2.26809 0.657959H16.7743V10.5007C16.7743 11.456 17.5576 12.2377 18.515 12.2377ZM17.9348 24.6714C16.4841 23.7884 15.5195 22.5726 14.8377 20.7777C15.1641 19.4388 15.679 17.4051 15.2874 16.1314C14.9465 14.0036 12.2121 14.2135 11.8204 15.6392C11.4577 16.9636 11.7914 18.8309 12.4079 21.212C11.5665 23.2095 10.3263 25.8873 9.44864 27.4216C9.44139 27.4216 9.44139 27.4288 9.43414 27.4288C7.46855 28.4348 4.09586 30.6494 5.4812 32.3502C5.88738 32.8496 6.6417 33.0739 7.04062 33.0739C8.33892 33.0739 9.62997 31.7712 11.4723 28.6013C13.3436 27.9861 15.3962 27.2189 17.2022 26.9222C18.7761 27.7762 20.6184 28.3335 21.8442 28.3335C23.9621 28.3335 24.1071 26.0175 23.273 25.1925C22.2649 24.2082 19.3346 24.4905 17.9348 24.6714ZM27.8715 8.25715L20.7635 1.16457C20.4371 0.838892 19.9946 0.657959 19.5304 0.657959H19.0953V9.92173H28.3792V9.48026C28.3792 9.0243 28.1979 8.58283 27.8715 8.25715ZM22.497 26.734C22.7943 26.5386 22.3156 25.8728 19.3926 26.0827C22.0835 27.2262 22.497 26.734 22.497 26.734Z" fill="#DD214F"/>
</g>
<defs>
<clipPath id="clip0_1092_2175">
<rect width="27.8519" height="37.0551" fill="white" transform="translate(0.527344 0.657959)"/>
</clipPath>
</defs>
</svg>
