<svg width="26" height="18" viewBox="0 0 26 18" fill="none" xmlns="http://www.w3.org/2000/svg">
<path d="M22.5546 1H3.64413C2.48369 1 1.54297 1.89543 1.54297 3V15C1.54297 16.1046 2.48369 17 3.64413 17H22.5546C23.715 17 24.6558 16.1046 24.6558 15V3C24.6558 1.89543 23.715 1 22.5546 1Z" stroke="#B8B8B8" stroke-width="2" stroke-linecap="round" stroke-linejoin="round"/>
<path d="M20.8093 9.72729H14.5579C14.1743 9.72729 13.8633 9.9308 13.8633 10.1818V12.9091C13.8633 13.1602 14.1743 13.3637 14.5579 13.3637H20.8093C21.1929 13.3637 21.5039 13.1602 21.5039 12.9091V10.1818C21.5039 9.9308 21.1929 9.72729 20.8093 9.72729Z" stroke="#518EF8" stroke-width="2" stroke-linecap="round" stroke-linejoin="round"/>
<path d="M1.54297 7H24.6558" stroke="#B8B8B8" stroke-width="2" stroke-linecap="round" stroke-linejoin="round"/>
</svg>
