<svg width="35" height="35" viewBox="0 0 35 35" fill="none" xmlns="http://www.w3.org/2000/svg">
<g clip-path="url(#clip0_212_3532)">
<path d="M34.523 14.8751L31.0353 7.89562C30.923 7.67074 30.7675 7.47019 30.5777 7.30541C30.3879 7.14063 30.1675 7.01484 29.9291 6.93524C29.6907 6.85564 29.4389 6.82378 29.1882 6.84148C28.9374 6.85918 28.6926 6.92609 28.4678 7.03839L24.9732 8.78566L17.7094 6.86339C17.5722 6.82785 17.4282 6.82785 17.291 6.86339L10.0271 8.78566L6.53397 7.03839C6.30903 6.92588 6.06412 6.8588 5.81323 6.84099C5.56235 6.82318 5.31042 6.85499 5.07184 6.9346C4.83326 7.01421 4.61271 7.14006 4.42279 7.30496C4.23288 7.46986 4.07733 7.67057 3.96503 7.89562L0.47733 14.8751C0.250425 15.3291 0.213119 15.8546 0.373616 16.3361C0.534113 16.8176 0.879271 17.2156 1.33319 17.4427L5.0451 19.2993L12.648 24.7298C12.7304 24.7892 12.8232 24.8328 12.9215 24.8583L21.6715 27.0458C21.7381 27.0625 21.8065 27.0708 21.8752 27.0704C22.0927 27.0702 22.3012 26.9837 22.4549 26.8298L30.0168 19.2679L33.6672 17.4427C34.1211 17.2156 34.4663 16.8176 34.6267 16.3361C34.7872 15.8546 34.7499 15.3291 34.523 14.8751ZM27.2769 19.6821L22.3824 15.761C22.2246 15.6347 22.0256 15.5711 21.8238 15.5825C21.6219 15.5938 21.4313 15.6793 21.2887 15.8226C18.7389 18.3915 15.8883 18.0675 14.0713 16.9054C14.0356 16.8834 14.0054 16.8534 13.9831 16.8178C13.9608 16.7823 13.947 16.7421 13.9428 16.7003C13.9379 16.662 13.9417 16.6231 13.9537 16.5865C13.9658 16.5498 13.9859 16.5163 14.0125 16.4884L20.0199 10.6642H24.6492L28.5334 18.4325L27.2769 19.6821ZM1.92928 15.8171C1.90667 15.7486 1.91208 15.6739 1.94432 15.6093L5.43338 8.62843C5.45632 8.58292 5.49151 8.54473 5.53499 8.51815C5.57847 8.49158 5.62852 8.47769 5.67948 8.47804C5.72171 8.47809 5.76336 8.48791 5.80116 8.50675L8.83768 10.0243L5.10253 17.5001L2.066 15.9825C2.03323 15.9656 2.00423 15.9422 1.98073 15.9138C1.95724 15.8854 1.93974 15.8525 1.92928 15.8171ZM21.6236 25.3423L13.4752 23.3052L6.5162 18.3341L10.5057 10.3566L17.5002 8.50539L19.5236 9.04132C19.3689 9.07126 19.2263 9.14588 19.1135 9.25597L12.8654 15.3194C12.6625 15.5222 12.5078 15.7679 12.4127 16.0385C12.3176 16.3091 12.2845 16.5976 12.3159 16.8827C12.3472 17.1677 12.4423 17.4421 12.594 17.6856C12.7456 17.929 12.9501 18.1352 13.1922 18.289C15.9566 20.0554 19.3103 19.7232 21.9148 17.4837L26.1135 20.8497L21.6236 25.3423ZM33.0711 15.8171C33.0598 15.8512 33.042 15.8828 33.0185 15.91C32.995 15.9372 32.9665 15.9595 32.9344 15.9757L29.8978 17.5001L26.1627 10.0243L29.1992 8.50675C29.2314 8.4906 29.2664 8.48096 29.3023 8.47838C29.3382 8.4758 29.3742 8.48033 29.4084 8.49171C29.4425 8.50297 29.4741 8.52083 29.5013 8.54429C29.5285 8.56775 29.5508 8.59634 29.567 8.62843L33.056 15.6093C33.0883 15.6739 33.0937 15.7486 33.0711 15.8171ZM17.7586 29.7296C17.7059 29.9406 17.5717 30.1221 17.3853 30.2341C17.1989 30.3461 16.9757 30.3796 16.7646 30.3271L11.0594 28.9011C10.9609 28.8759 10.8682 28.8323 10.7859 28.7726L7.18065 26.2009C7.00352 26.074 6.88406 25.8819 6.84855 25.6669C6.81304 25.4519 6.86438 25.2316 6.99129 25.0545C7.1182 24.8774 7.31028 24.7579 7.52527 24.7224C7.74026 24.6869 7.96055 24.7382 8.13768 24.8652L11.609 27.3439L17.1611 28.7316C17.2659 28.7577 17.3645 28.8044 17.4512 28.8688C17.5379 28.9331 17.6111 29.014 17.6665 29.1068C17.7219 29.1995 17.7584 29.3022 17.774 29.4091C17.7895 29.516 17.7838 29.6249 17.7572 29.7296H17.7586Z" fill="black"/>
<path d="M33.9722 0.251002C33.7426 0.123254 33.4901 0.0420148 33.2291 0.0119294C32.9681 -0.0181561 32.7037 0.00350228 32.4511 0.0756663C32.1985 0.14783 31.9626 0.269084 31.7568 0.432494C31.5511 0.595904 31.3796 0.798264 31.2522 1.028L27.5392 7.71L25.4142 5.585C25.2297 5.39398 25.009 5.24162 24.765 5.1368C24.521 5.03198 24.2585 4.97681 23.993 4.9745C23.7274 4.97219 23.464 5.0228 23.2183 5.12336C22.9725 5.22392 22.7492 5.37243 22.5614 5.56021C22.3736 5.748 22.2251 5.9713 22.1245 6.21709C22.024 6.46289 21.9734 6.72625 21.9757 6.9918C21.978 7.25736 22.0331 7.5198 22.138 7.76381C22.2428 8.00782 22.3951 8.22851 22.5862 8.413L26.5862 12.413C26.9642 12.792 27.4742 13 28.0002 13L28.2772 12.98C28.5837 12.9371 28.8761 12.8237 29.1314 12.6486C29.3866 12.4735 29.5978 12.2415 29.7482 11.971L34.7482 2.971C34.8758 2.74145 34.957 2.48901 34.9871 2.22808C35.0172 1.96715 34.9956 1.70286 34.9235 1.45028C34.8515 1.1977 34.7304 0.96179 34.5671 0.756017C34.4039 0.550244 34.2017 0.37864 33.9722 0.251002Z" fill="#4ECB71"/>
</g>
<defs>
<clipPath id="clip0_212_3532">
<rect width="35" height="35" fill="white"/>
</clipPath>
</defs>
</svg>
