<svg width="35" height="25" viewBox="0 0 35 25" fill="none" xmlns="http://www.w3.org/2000/svg">
<path d="M34.523 8.87511L31.0353 1.89562C30.923 1.67074 30.7675 1.47019 30.5777 1.30541C30.3879 1.14063 30.1675 1.01484 29.9291 0.935242C29.6907 0.855641 29.4389 0.823781 29.1882 0.84148C28.9374 0.859178 28.6926 0.926089 28.4678 1.03839L24.9732 2.78566L17.7094 0.863393C17.5722 0.827848 17.4282 0.827848 17.291 0.863393L10.0271 2.78566L6.53397 1.03839C6.30903 0.925877 6.06412 0.858796 5.81323 0.840986C5.56235 0.823177 5.31042 0.854987 5.07184 0.934599C4.83326 1.01421 4.61271 1.14006 4.42279 1.30496C4.23288 1.46986 4.07733 1.67057 3.96503 1.89562L0.47733 8.87511C0.250425 9.3291 0.213119 9.85462 0.373616 10.3361C0.534113 10.8176 0.879271 11.2156 1.33319 11.4427L5.0451 13.2993L12.648 18.7298C12.7304 18.7892 12.8232 18.8328 12.9215 18.8583L21.6715 21.0458C21.7381 21.0625 21.8065 21.0708 21.8752 21.0704C22.0927 21.0702 22.3012 20.9837 22.4549 20.8298L30.0168 13.2679L33.6672 11.4427C34.1211 11.2156 34.4663 10.8176 34.6267 10.3361C34.7872 9.85462 34.7499 9.3291 34.523 8.87511ZM27.2769 13.6821L22.3824 9.76105C22.2246 9.63472 22.0256 9.57113 21.8238 9.58248C21.6219 9.59383 21.4313 9.67933 21.2887 9.82257C18.7389 12.3915 15.8883 12.0675 14.0713 10.9054C14.0356 10.8834 14.0054 10.8534 13.9831 10.8178C13.9608 10.7823 13.947 10.7421 13.9428 10.7003C13.9379 10.662 13.9417 10.6231 13.9537 10.5865C13.9658 10.5498 13.9859 10.5163 14.0125 10.4884L20.0199 4.66417H24.6492L28.5334 12.4325L27.2769 13.6821ZM1.92928 9.8171C1.90667 9.74856 1.91208 9.67386 1.94432 9.60929L5.43338 2.62843C5.45632 2.58292 5.49151 2.54473 5.53499 2.51815C5.57847 2.49158 5.62852 2.47769 5.67948 2.47804C5.72171 2.47809 5.76336 2.48791 5.80116 2.50675L8.83768 4.02433L5.10253 11.5001L2.066 9.98253C2.03323 9.9656 2.00423 9.94222 1.98073 9.91379C1.95724 9.88536 1.93974 9.85247 1.92928 9.8171ZM21.6236 19.3423L13.4752 17.3052L6.5162 12.3341L10.5057 4.35656L17.5002 2.50539L19.5236 3.04132C19.3689 3.07126 19.2263 3.14588 19.1135 3.25597L12.8654 9.31945C12.6625 9.52219 12.5078 9.76793 12.4127 10.0385C12.3176 10.3091 12.2845 10.5976 12.3159 10.8827C12.3472 11.1677 12.4423 11.4421 12.594 11.6856C12.7456 11.929 12.9501 12.1352 13.1922 12.289C15.9566 14.0554 19.3103 13.7232 21.9148 11.4837L26.1135 14.8497L21.6236 19.3423ZM33.0711 9.8171C33.0598 9.85122 33.042 9.88279 33.0185 9.91001C32.995 9.93722 32.9665 9.95954 32.9344 9.9757L29.8978 11.5001L26.1627 4.02433L29.1992 2.50675C29.2314 2.4906 29.2664 2.48096 29.3023 2.47838C29.3382 2.4758 29.3742 2.48033 29.4084 2.49171C29.4425 2.50297 29.4741 2.52083 29.5013 2.54429C29.5285 2.56775 29.5508 2.59634 29.567 2.62843L33.056 9.60929C33.0883 9.67386 33.0937 9.74856 33.0711 9.8171ZM17.7586 23.7296C17.7059 23.9406 17.5717 24.1221 17.3853 24.2341C17.1989 24.3461 16.9757 24.3796 16.7646 24.3271L11.0594 22.9011C10.9609 22.8759 10.8682 22.8323 10.7859 22.7726L7.18065 20.2009C7.00352 20.074 6.88406 19.8819 6.84855 19.6669C6.81304 19.4519 6.86438 19.2316 6.99129 19.0545C7.1182 18.8774 7.31028 18.7579 7.52527 18.7224C7.74026 18.6869 7.96055 18.7382 8.13768 18.8652L11.609 21.3439L17.1611 22.7316C17.2659 22.7577 17.3645 22.8044 17.4512 22.8688C17.5379 22.9331 17.6111 23.014 17.6665 23.1068C17.7219 23.1995 17.7584 23.3022 17.774 23.4091C17.7895 23.516 17.7838 23.6249 17.7572 23.7296H17.7586Z" fill="black"/>
</svg>
