<svg width="25" height="24" viewBox="0 0 25 24" fill="none" xmlns="http://www.w3.org/2000/svg">
<path d="M20.4401 6.82006L14.6801 2.79006C13.1101 1.69006 10.7001 1.75006 9.19014 2.92006L4.18014 6.83006C3.18014 7.61006 2.39014 9.21006 2.39014 10.4701V17.3701C2.39014 19.9201 4.46014 22.0001 7.01014 22.0001H17.7901C20.3401 22.0001 22.4101 19.9301 22.4101 17.3801V10.6001C22.4101 9.25006 21.5401 7.59006 20.4401 6.82006ZM13.1501 18.0001C13.1501 18.4101 12.8101 18.7501 12.4001 18.7501C11.9901 18.7501 11.6501 18.4101 11.6501 18.0001V15.0001C11.6501 14.5901 11.9901 14.2501 12.4001 14.2501C12.8101 14.2501 13.1501 14.5901 13.1501 15.0001V18.0001Z" fill="#131313"/>
</svg>
