<svg width="20" height="20" viewBox="0 0 20 20" fill="none" xmlns="http://www.w3.org/2000/svg">
<path fill-rule="evenodd" clip-rule="evenodd" d="M9.99986 12.8571C10.7888 12.8571 11.4284 13.4967 11.4284 14.2857C11.4284 15.0746 10.7888 15.7142 9.99986 15.7142C9.21089 15.7142 8.57129 15.0746 8.57129 14.2857C8.57129 13.4967 9.21089 12.8571 9.99986 12.8571ZM9.99986 8.57138C10.7888 8.57138 11.4284 9.21098 11.4284 9.99995C11.4284 10.7889 10.7888 11.4285 9.99986 11.4285C9.21089 11.4285 8.57129 10.7889 8.57129 9.99995C8.57129 9.21098 9.21089 8.57138 9.99986 8.57138ZM11.4284 5.71423C11.4284 4.92523 10.7888 4.28566 9.99986 4.28566C9.21089 4.28566 8.57129 4.92523 8.57129 5.71423C8.57129 6.5032 9.21089 7.14281 9.99986 7.14281C10.7888 7.14281 11.4284 6.5032 11.4284 5.71423Z" fill="#2C62B9"/>
</svg>
