<svg width="19" height="19" viewBox="0 0 19 19" fill="none" xmlns="http://www.w3.org/2000/svg">
<path fill-rule="evenodd" clip-rule="evenodd" d="M0 9.16667C0 4.10405 4.10405 0 9.16667 0C9.38768 0 9.59964 0.0877973 9.75592 0.244078L18.0893 8.57741C18.2455 8.73369 18.3333 8.94565 18.3333 9.16667C18.3333 14.2293 14.2293 18.3333 9.16667 18.3333C4.10405 18.3333 0 14.2293 0 9.16667ZM8.07225 1.74594C4.44886 2.2757 1.66667 5.39627 1.66667 9.16667C1.66667 13.3088 5.02453 16.6667 9.16667 16.6667C12.964 16.6667 16.1023 13.8445 16.5984 10.1832C16.1438 10.241 15.5749 10.2828 14.9437 10.2599C13.3881 10.2033 11.3663 9.74731 9.806 8.06704C8.2637 6.4061 7.91389 4.50537 7.94287 3.05625C7.95273 2.56366 8.00609 2.11888 8.07225 1.74594ZM9.64796 2.49314L15.7427 8.58783C15.5121 8.59996 15.2641 8.60375 15.0042 8.5943C13.6952 8.5467 12.1754 8.16935 11.0273 6.93296C9.8613 5.67723 9.58611 4.24463 9.60921 3.08958C9.61341 2.87923 9.62759 2.67934 9.64796 2.49314Z" fill="black" fill-opacity="0.4"/>
</svg>
