<svg width="24" height="24" viewBox="0 0 24 24" fill="none" xmlns="http://www.w3.org/2000/svg">
<path d="M15.5 10C15.5 10.3978 15.658 10.7794 15.9393 11.0607C16.2206 11.342 16.6022 11.5 17 11.5C17.3978 11.5 17.7794 11.342 18.0607 11.0607C18.342 10.7794 18.5 10.3978 18.5 10C18.5 9.60218 18.342 9.22064 18.0607 8.93934C17.7794 8.65804 17.3978 8.5 17 8.5C16.6022 8.5 16.2206 8.65804 15.9393 8.93934C15.658 9.22064 15.5 9.60218 15.5 10ZM7 11.5C6.60218 11.5 6.22064 11.342 5.93934 11.0607C5.65804 10.7794 5.5 10.3978 5.5 10C5.5 9.60218 5.65804 9.22064 5.93934 8.93934C6.22064 8.65804 6.60218 8.5 7 8.5C7.39782 8.5 7.77936 8.65804 8.06066 8.93934C8.34196 9.22064 8.5 9.60218 8.5 10C8.5 10.3978 8.34196 10.7794 8.06066 11.0607C7.77936 11.342 7.39782 11.5 7 11.5ZM10.5 10C10.5 10.3978 10.658 10.7794 10.9393 11.0607C11.2206 11.342 11.6022 11.5 12 11.5C12.3978 11.5 12.7794 11.342 13.0607 11.0607C13.342 10.7794 13.5 10.3978 13.5 10C13.5 9.60218 13.342 9.22064 13.0607 8.93934C12.7794 8.65804 12.3978 8.5 12 8.5C11.6022 8.5 11.2206 8.65804 10.9393 8.93934C10.658 9.22064 10.5 9.60218 10.5 10Z" fill="#5E5E5E"/>
<path fill-rule="evenodd" clip-rule="evenodd" d="M22 9.628C22 16.625 16.916 20.558 13.5 22.314C12.947 22.599 12.437 22.826 12 23V22.256C12 21.967 11.958 21.689 11.881 21.424C11.515 20.169 10.351 19.208 9.047 18.796C5.102 17.55 2 13.916 2 9.628C2 4.31 6.768 0 12 0C17.232 0 22 4.31 22 9.628ZM9.498 17.365C6.086 16.288 3.5 13.171 3.5 9.628C3.5 5.219 7.513 1.5 12 1.5C16.487 1.5 20.5 5.22 20.5 9.628C20.5 15.532 16.375 19.038 13.245 20.754C12.635 19.025 11.029 17.848 9.498 17.365Z" fill="#5E5E5E"/>
</svg>
