<svg width="25" height="24" viewBox="0 0 25 24" fill="none" xmlns="http://www.w3.org/2000/svg">
<path d="M9.78506 10.87C9.68506 10.86 9.56506 10.86 9.45506 10.87C7.07506 10.79 5.18506 8.84 5.18506 6.44C5.18506 3.99 7.16506 2 9.62506 2C12.0751 2 14.0651 3.99 14.0651 6.44C14.0551 8.84 12.1651 10.79 9.78506 10.87Z" stroke="#5E5E5E" stroke-width="1.5" stroke-linecap="round" stroke-linejoin="round"/>
<path d="M17.0348 4C18.9748 4 20.5348 5.57 20.5348 7.5C20.5348 9.39 19.0348 10.93 17.1648 11C17.0848 10.99 16.9948 10.99 16.9048 11" stroke="#5E5E5E" stroke-width="1.5" stroke-linecap="round" stroke-linejoin="round"/>
<path d="M4.78521 14.56C2.36521 16.18 2.36521 18.82 4.78521 20.43C7.53521 22.27 12.0452 22.27 14.7952 20.43C17.2152 18.81 17.2152 16.17 14.7952 14.56C12.0552 12.73 7.54521 12.73 4.78521 14.56Z" stroke="#5E5E5E" stroke-width="1.5" stroke-linecap="round" stroke-linejoin="round"/>
<path d="M18.9648 20C19.6848 19.85 20.3648 19.56 20.9248 19.13C22.4848 17.96 22.4848 16.03 20.9248 14.86C20.3748 14.44 19.7048 14.16 18.9948 14" stroke="#5E5E5E" stroke-width="1.5" stroke-linecap="round" stroke-linejoin="round"/>
</svg>
