<svg width="22" height="22" viewBox="0 0 22 22" fill="none" xmlns="http://www.w3.org/2000/svg">
<path d="M14.2725 13.6685C14.2725 15.7393 12.333 15.6914 12.1279 15.6914H8.17822V11.7026H12.1279C14.2061 11.7026 14.2725 13.2603 14.2725 13.6685ZM11.8237 10.0977C11.8564 10.0977 13.7007 10.1465 13.7007 8.32471C13.7007 7.5669 13.5293 6.57324 11.8237 6.57324H8.17822V10.0977H11.8237ZM21.875 3.646V18.229C21.8722 19.1951 21.4871 20.1208 20.804 20.804C20.1208 21.4871 19.1951 21.8722 18.229 21.875H3.646C2.67989 21.8722 1.75416 21.4871 1.07102 20.804C0.387875 20.1208 0.00283393 19.1951 0 18.229L0 3.646C0.00283393 2.67989 0.387875 1.75416 1.07102 1.07102C1.75416 0.387875 2.67989 0.00283393 3.646 0H18.229C19.1951 0.00283393 20.1208 0.387875 20.804 1.07102C21.4871 1.75416 21.8722 2.67989 21.875 3.646ZM16.5063 13.958C16.5063 12.9048 16.1816 11.1118 14.1113 10.6694V10.6338C15.23 10.1562 15.9346 9.25439 15.9346 7.91699C15.9346 7.5752 16.0322 4.75391 12.1455 4.75391H5.94434V17.5142C12.2056 17.5142 12.7739 17.5962 13.9326 17.2354C14.6265 17.0195 16.5063 16.3574 16.5063 13.958Z" fill="black"/>
</svg>
