<svg width="21" height="19" viewBox="0 0 21 19" fill="none" xmlns="http://www.w3.org/2000/svg">
<path d="M19.25 0H1.75C0.783854 0 0 0.797852 0 1.78125V13.6562C0 14.6396 0.783854 15.4375 1.75 15.4375H8.75L8.16667 17.2188H5.54167C5.05677 17.2188 4.66667 17.6158 4.66667 18.1094C4.66667 18.6029 5.05677 19 5.54167 19H15.4583C15.9432 19 16.3333 18.6029 16.3333 18.1094C16.3333 17.6158 15.9432 17.2188 15.4583 17.2188H12.8333L12.25 15.4375H19.25C20.2161 15.4375 21 14.6396 21 13.6562V1.78125C21 0.797852 20.2161 0 19.25 0ZM18.6667 13.0625H2.33333V2.375H18.6667V13.0625Z" fill="white"/>
</svg>
