<svg width="22" height="22" viewBox="0 0 22 22" fill="none" xmlns="http://www.w3.org/2000/svg">
<path d="M12.2154 6.38184C9.83746 6.46973 3.93902 7.13867 3.93902 12.1191C3.93902 17.4658 10.6919 17.6855 12.899 14.2285C13.2164 14.7266 14.6275 16.0596 15.1109 16.5137L17.8843 13.7793C17.8843 13.7793 16.3072 12.5439 16.3072 11.2012V4.01855C16.3072 2.7832 15.1109 0 10.8238 0C6.52691 0 4.24663 2.68555 4.24663 5.09277L7.8355 5.42481C8.6314 3.00781 10.482 3.00781 10.482 3.00781C12.4693 3.00293 12.2154 4.46289 12.2154 6.38184ZM12.2154 10.6201C12.2154 14.5264 8.10406 13.9404 8.10406 11.46C8.10406 9.15527 10.5699 8.69141 12.2154 8.6377V10.6201ZM18.856 18.6035C18.48 19.0918 15.438 21.875 10.3355 21.875C5.23296 21.875 1.32671 18.3838 0.130424 16.9434C-0.201607 16.5674 0.179252 16.3916 0.398979 16.5381C3.97808 18.7109 9.5689 22.29 18.5875 18.0176C18.9537 17.8369 19.2369 18.1152 18.856 18.6035ZM20.7994 18.7109C20.482 19.4824 20.0181 20.0195 19.7642 20.2246C19.4957 20.4443 19.3003 20.3564 19.4468 20.0391C19.5933 19.7217 20.3892 17.7686 20.0669 17.3535C19.7496 16.9482 18.2603 17.1436 17.7232 17.1973C17.1959 17.2461 17.0884 17.2949 17.0396 17.1826C16.9273 16.9043 18.0992 16.4258 18.8707 16.3281C19.6373 16.2402 20.8726 16.2891 21.1168 16.6064C21.2974 16.8555 21.1168 17.9297 20.7994 18.7109Z" fill="black"/>
</svg>
