<svg width="22" height="22" viewBox="0 0 22 22" fill="none" xmlns="http://www.w3.org/2000/svg">
<path d="M18.75 15.625C18.7329 15.625 18.7173 15.6299 18.7002 15.6299L16.7861 12.4404C17.0337 11.9927 17.1875 11.4854 17.1875 10.9375C17.1875 10.3896 17.0342 9.88232 16.7861 9.43457L18.7002 6.24512C18.7173 6.2456 18.7329 6.25 18.75 6.25C20.4761 6.25 21.875 4.85107 21.875 3.125C21.875 1.39893 20.4761 0 18.75 0C17.5962 0 16.5996 0.632324 16.0586 1.5625H5.81641C5.27539 0.632324 4.27881 0 3.125 0C1.39893 0 0 1.39893 0 3.125C0 4.27881 0.632324 5.27539 1.5625 5.81641V16.0581C0.632324 16.5996 0 17.5962 0 18.75C0 20.4761 1.39893 21.875 3.125 21.875C4.27881 21.875 5.27539 21.2427 5.81641 20.3125H16.0581C16.5996 21.2427 17.5957 21.875 18.7495 21.875C20.4756 21.875 21.8745 20.4761 21.8745 18.75C21.875 17.0239 20.4761 15.625 18.75 15.625ZM4.6875 16.0586V5.81641C5.15544 5.54451 5.54451 5.15544 5.81641 4.6875H15.9902L14.1123 7.81738C14.0952 7.8169 14.0796 7.8125 14.0625 7.8125C12.3364 7.8125 10.9375 9.21143 10.9375 10.9375C10.9375 12.6636 12.3364 14.0625 14.0625 14.0625C14.0796 14.0625 14.0952 14.0576 14.1123 14.0576L15.9902 17.1875H5.81641C5.54465 16.7195 5.15555 16.3304 4.6875 16.0586ZM13.2812 10.9375C13.2812 10.5068 13.6318 10.1562 14.0625 10.1562C14.4932 10.1562 14.8438 10.5068 14.8438 10.9375C14.8438 11.3682 14.4932 11.7188 14.0625 11.7188C13.6318 11.7188 13.2812 11.3682 13.2812 10.9375ZM19.5312 3.125C19.5312 3.55566 19.1807 3.90625 18.75 3.90625C18.3193 3.90625 17.9688 3.55566 17.9688 3.125C17.9688 2.69434 18.3193 2.34375 18.75 2.34375C19.1807 2.34375 19.5312 2.69434 19.5312 3.125ZM3.125 2.34375C3.55566 2.34375 3.90625 2.69434 3.90625 3.125C3.90625 3.55566 3.55566 3.90625 3.125 3.90625C2.69434 3.90625 2.34375 3.55566 2.34375 3.125C2.34375 2.69434 2.69434 2.34375 3.125 2.34375ZM2.34375 18.75C2.34375 18.3193 2.69434 17.9688 3.125 17.9688C3.55566 17.9688 3.90625 18.3193 3.90625 18.75C3.90625 19.1807 3.55566 19.5312 3.125 19.5312C2.69434 19.5312 2.34375 19.1807 2.34375 18.75ZM18.75 19.5312C18.3193 19.5312 17.9688 19.1807 17.9688 18.75C17.9688 18.3193 18.3193 17.9688 18.75 17.9688C19.1807 17.9688 19.5312 18.3193 19.5312 18.75C19.5312 19.1807 19.1807 19.5312 18.75 19.5312Z" fill="black"/>
</svg>
