<svg width="25" height="22" viewBox="0 0 25 22" fill="none" xmlns="http://www.w3.org/2000/svg">
<path d="M12.5 0C5.5918 0 1.29777e-10 5.59063 1.29777e-10 12.5V14.8438C-3.73915e-06 15.1339 0.0807978 15.4184 0.23335 15.6652C0.385903 15.9121 0.604179 16.1115 0.863721 16.2413L1.56602 16.5924C1.66421 19.5265 4.07329 21.875 7.03125 21.875H8.20312C8.85034 21.875 9.375 21.3503 9.375 20.7031V12.1094C9.375 11.4622 8.85034 10.9375 8.20312 10.9375H7.03125C5.50088 10.9375 4.11763 11.5664 3.125 12.5794V12.5C3.125 7.33062 7.33062 3.125 12.5 3.125C17.6694 3.125 21.875 7.33062 21.875 12.5V12.5794C20.8824 11.5664 19.4991 10.9375 17.9688 10.9375H16.7969C16.1497 10.9375 15.625 11.4622 15.625 12.1094V20.7031C15.625 21.3503 16.1497 21.875 16.7969 21.875H17.9688C20.9267 21.875 23.3358 19.5265 23.434 16.5924L24.1362 16.2413C24.3958 16.1115 24.6141 15.9121 24.7666 15.6652C24.9192 15.4184 25 15.1339 25 14.8438V12.5C25 5.59185 19.4094 0 12.5 0Z" fill="black"/>
</svg>
