<svg width="25" height="24" viewBox="0 0 25 24" fill="none" xmlns="http://www.w3.org/2000/svg">
<path d="M19.7998 13.667C19.3788 13.6074 18.9885 13.4126 18.6878 13.112C18.3872 12.8113 18.1924 12.421 18.1328 12H17.4668C17.4072 12.421 17.2124 12.8113 16.9118 13.112C16.6111 13.4126 16.2208 13.6074 15.7998 13.667V14.333C16.2208 14.3926 16.6111 14.5874 16.9118 14.888C17.2124 15.1887 17.4072 15.579 17.4668 16H18.1328C18.1924 15.579 18.3872 15.1887 18.6878 14.888C18.9885 14.5874 19.3788 14.3926 19.7998 14.333V13.667Z" fill="#5E5E5E"/>
<path fill-rule="evenodd" clip-rule="evenodd" d="M6.62514 2.95238C7.1293 2.36762 7.86081 2 8.6748 2H21.0498C21.7792 2 22.4786 2.30102 22.9943 2.83684C23.5101 3.37266 23.7998 4.09938 23.7998 4.85714V18.4286C23.7998 19.3758 23.4376 20.2842 22.793 20.954C22.1483 21.6237 21.274 22 20.3623 22H5.2373C4.32562 22 3.45128 21.6237 2.80663 20.954C2.16197 20.2842 1.7998 19.3758 1.7998 18.4286L1.7998 5.33333C1.7998 4.70187 2.04125 4.09626 2.47102 3.64975C2.90079 3.20323 3.48368 2.95238 4.09147 2.95238H6.62514ZM8.6748 3.42857H21.0498C21.4145 3.42857 21.7642 3.57908 22.0221 3.84699C22.2799 4.1149 22.4248 4.47826 22.4248 4.85714V6.28571H7.2998V4.85714C7.2998 4.47826 7.44467 4.1149 7.70253 3.84699C7.9604 3.57908 8.31013 3.42857 8.6748 3.42857ZM22.4248 7.71429H4.09147C3.76514 7.71429 3.4553 7.64381 3.1748 7.51619V18.4286C3.1748 18.9969 3.3921 19.5419 3.7789 19.9438C4.16569 20.3457 4.6903 20.5714 5.2373 20.5714H20.3623C20.9093 20.5714 21.4339 20.3457 21.8207 19.9438C22.2075 19.5419 22.4248 18.9969 22.4248 18.4286V18.381C22.0811 18.5638 21.6915 18.6667 21.279 18.6667H16.0081C15.3396 18.6667 14.6984 18.3907 14.2256 17.8996C13.7529 17.4084 13.4873 16.7422 13.4873 16.0476V12.2381C13.4873 11.5435 13.7529 10.8773 14.2256 10.3861C14.6984 9.89498 15.3396 9.61905 16.0081 9.61905H21.279C21.9115 9.61905 22.4248 9.08571 22.4248 8.42857V7.71429ZM5.9248 6.28571V4.38095H4.09147C3.84836 4.38095 3.6152 4.48129 3.44329 4.6599C3.27138 4.8385 3.1748 5.08075 3.1748 5.33333C3.1748 5.58592 3.27138 5.82816 3.44329 6.00677C3.6152 6.18537 3.84836 6.28571 4.09147 6.28571H5.9248ZM22.4248 16.0476C22.4248 16.7048 21.9115 17.2381 21.279 17.2381H16.0081C15.3756 17.2381 14.8623 16.7048 14.8623 16.0476V12.2381C14.8623 11.581 15.3756 11.0476 16.0081 11.0476H21.279C21.6915 11.0476 22.0811 10.9448 22.4248 10.7619V16.0476Z" fill="#5E5E5E"/>
</svg>
