<svg width="13" height="13" viewBox="0 0 13 13" fill="none" xmlns="http://www.w3.org/2000/svg">
<g clip-path="url(#clip0_64_1625)">
<path d="M2.17587 9.66387C2.26021 9.74853 2.32483 9.85075 2.36514 9.96324C2.40545 10.0757 2.42044 10.1957 2.40906 10.3147C2.35196 10.8652 2.2437 11.4092 2.08569 11.9397C3.21912 11.6772 3.91138 11.3734 4.22581 11.2141C4.40416 11.1238 4.60955 11.1024 4.80269 11.154C5.35635 11.3016 5.927 11.3759 6.5 11.375C9.74675 11.375 12.1875 9.09431 12.1875 6.5C12.1875 3.9065 9.74675 1.625 6.5 1.625C3.25325 1.625 0.8125 3.9065 0.8125 6.5C0.8125 7.69275 1.31381 8.79937 2.17587 9.66387ZM1.77531 12.8367C1.58281 12.8748 1.38967 12.9098 1.196 12.9415C1.0335 12.9675 0.91 12.7985 0.974187 12.6474C1.04633 12.4772 1.11246 12.3046 1.17244 12.1298L1.17488 12.1217C1.37637 11.5367 1.5405 10.8639 1.60063 10.2375C0.603688 9.23812 0 7.93 0 6.5C0 3.35887 2.91037 0.8125 6.5 0.8125C10.0896 0.8125 13 3.35887 13 6.5C13 9.64112 10.0896 12.1875 6.5 12.1875C5.85622 12.1884 5.2151 12.1048 4.59306 11.9389C4.17056 12.1526 3.26137 12.5417 1.77531 12.8367Z" fill="white"/>
<path d="M3.25 4.46875C3.25 4.36101 3.2928 4.25767 3.36899 4.18149C3.44517 4.1053 3.54851 4.0625 3.65625 4.0625H9.34375C9.45149 4.0625 9.55483 4.1053 9.63101 4.18149C9.7072 4.25767 9.75 4.36101 9.75 4.46875C9.75 4.57649 9.7072 4.67983 9.63101 4.75601C9.55483 4.8322 9.45149 4.875 9.34375 4.875H3.65625C3.54851 4.875 3.44517 4.8322 3.36899 4.75601C3.2928 4.67983 3.25 4.57649 3.25 4.46875ZM3.25 6.5C3.25 6.39226 3.2928 6.28892 3.36899 6.21274C3.44517 6.13655 3.54851 6.09375 3.65625 6.09375H9.34375C9.45149 6.09375 9.55483 6.13655 9.63101 6.21274C9.7072 6.28892 9.75 6.39226 9.75 6.5C9.75 6.60774 9.7072 6.71108 9.63101 6.78726C9.55483 6.86345 9.45149 6.90625 9.34375 6.90625H3.65625C3.54851 6.90625 3.44517 6.86345 3.36899 6.78726C3.2928 6.71108 3.25 6.60774 3.25 6.5ZM3.25 8.53125C3.25 8.42351 3.2928 8.32017 3.36899 8.24399C3.44517 8.1678 3.54851 8.125 3.65625 8.125H6.90625C7.01399 8.125 7.11733 8.1678 7.19351 8.24399C7.2697 8.32017 7.3125 8.42351 7.3125 8.53125C7.3125 8.63899 7.2697 8.74233 7.19351 8.81851C7.11733 8.8947 7.01399 8.9375 6.90625 8.9375H3.65625C3.54851 8.9375 3.44517 8.8947 3.36899 8.81851C3.2928 8.74233 3.25 8.63899 3.25 8.53125Z" fill="white"/>
</g>
<defs>
<clipPath id="clip0_64_1625">
<rect width="13" height="13" fill="white"/>
</clipPath>
</defs>
</svg>
